/* XPM */
static char *_d2e77ad723f464cf96c1204bfbc35eeMVheplVSqV4rAFgE[] = {
/* columns rows colors chars-per-pixel */
"64 64 216 2 ",
"   c #1C130D",
".  c #18171C",
"X  c #1B1A1C",
"o  c #1E1311",
"O  c #210D02",
"+  c #22130B",
"@  c #2C180B",
"#  c #311A0C",
"$  c #231712",
"%  c #2D1C13",
"&  c #281C18",
"*  c #311D13",
"=  c #2C221B",
"-  c #342116",
";  c #33241A",
":  c #3A251B",
">  c #36281F",
",  c #3C2A1E",
"<  c #1C1C22",
"1  c #211F22",
"2  c #242322",
"3  c #2C2522",
"4  c #2C2A26",
"5  c #2E2C29",
"6  c #282629",
"7  c #302723",
"8  c #382721",
"9  c #342A23",
"0  c #3C2C23",
"q  c #352D2B",
"w  c #3A2F2C",
"e  c #2F302B",
"r  c #3E3025",
"t  c #33312D",
"y  c #3C322C",
"u  c #302E34",
"i  c #2C3136",
"p  c #2C3339",
"a  c #343333",
"s  c #3C3533",
"d  c #3D3A35",
"f  c #33353A",
"g  c #3A3539",
"h  c #36383E",
"j  c #3B3A3D",
"k  c #363833",
"l  c #442A1D",
"z  c #4A2D1D",
"x  c #4C311E",
"c  c #432D23",
"v  c #4A2F24",
"b  c #452E28",
"n  c #443225",
"m  c #4B3425",
"M  c #45342B",
"N  c #4A352B",
"B  c #46392E",
"V  c #4D3A2D",
"C  c #4C3B27",
"Z  c #513525",
"A  c #543925",
"S  c #5B3B24",
"D  c #51362A",
"F  c #533B2D",
"G  c #5A3D2D",
"H  c #443631",
"J  c #4C3730",
"K  c #443A33",
"L  c #4C3C33",
"P  c #433D3B",
"I  c #4A3E3A",
"U  c #533D33",
"Y  c #5A3E32",
"T  c #533F38",
"R  c #583F38",
"E  c #57412E",
"W  c #5B412D",
"Q  c #434136",
"!  c #4E4136",
"~  c #4E433B",
"^  c #4A493D",
"/  c #43443E",
"(  c #544134",
")  c #5B4234",
"_  c #5D4834",
"`  c #54443A",
"'  c #5B453A",
"]  c #534A3C",
"[  c #5D493C",
"{  c #554835",
"}  c #5C513D",
"|  c #60412D",
" . c #624534",
".. c #6B4636",
"X. c #644935",
"o. c #6A4B36",
"O. c #62463A",
"+. c #644B3C",
"@. c #6A4D3C",
"#. c #684738",
"$. c #734E3C",
"%. c #66503D",
"&. c #6B523D",
"*. c #72543E",
"=. c #363940",
"-. c #3E3D43",
";. c #433E43",
":. c #434242",
">. c #4D4342",
",. c #4F4B43",
"<. c #464647",
"1. c #514641",
"2. c #5C4641",
"3. c #554A43",
"4. c #5D4B42",
"5. c #564C4A",
"6. c #584E4C",
"7. c #575446",
"8. c #5C5243",
"9. c #565449",
"0. c #5B524B",
"q. c #5B5849",
"w. c #644D42",
"e. c #6A4E42",
"r. c #614B44",
"t. c #675143",
"y. c #655244",
"u. c #6B5446",
"i. c #6C5344",
"p. c #655A45",
"a. c #6D5845",
"s. c #65534A",
"d. c #6B554A",
"f. c #645A4B",
"g. c #6D594B",
"h. c #725544",
"j. c #785745",
"k. c #745946",
"l. c #7A5A46",
"z. c #73564A",
"x. c #735B4B",
"c. c #7A5D4C",
"v. c #655A52",
"b. c #6B5C54",
"n. c #6C5F5B",
"m. c #665751",
"M. c #745E52",
"N. c #7A5E51",
"B. c #785F58",
"V. c #6F604D",
"C. c #76614E",
"Z. c #7D624D",
"A. c #6C6356",
"S. c #6A6359",
"D. c #656259",
"F. c #746254",
"G. c #7B6353",
"H. c #7C6956",
"J. c #74645B",
"K. c #7C6559",
"L. c #7C6A5B",
"P. c #766B55",
"I. c #7B715F",
"U. c #6F6B62",
"Y. c #7A6760",
"T. c #756C64",
"R. c #756B65",
"E. c #7D746A",
"W. c #787364",
"Q. c #82644E",
"!. c #826552",
"~. c #846A55",
"^. c #8A6B56",
"/. c #816558",
"(. c #846B5B",
"). c #8A6E5B",
"_. c #886754",
"`. c #83705F",
"'. c #8C725D",
"]. c #92735F",
"[. c #856F61",
"{. c #847263",
"}. c #8B7362",
"|. c #837965",
" X c #8E7A66",
".X c #85746B",
"XX c #8C776B",
"oX c #8C7A6B",
"OX c #917663",
"+X c #957B65",
"@X c #937C6C",
"#X c #9B7E6A",
"$X c #977A68",
"%X c #827C71",
"&X c #8C7B72",
"*X c #897670",
"=X c #927F72",
"-X c #997F70",
";X c #8B836E",
":X c #9C8167",
">X c #9C826C",
",X c #8C847A",
"<X c #8A8372",
"1X c #948176",
"2X c #9A8475",
"3X c #9B867C",
"4X c #928A7A",
"5X c #9B8A77",
"6X c #9B937E",
"7X c #A3876F",
"8X c #A48973",
"9X c #A68D79",
"0X c #A78C75",
"qX c #A6917A",
"wX c #999188",
"eX c #B39A86",
/* pixels */
"; ~ 5.>.R.v.H q y M u.F.u.c ) ' U c ) #.O.Y Y @.G.D g.V n ) @.l.*. .m { ` L ~ L V c ) c.@.) ) A x.G )  . .) e.O.F U N U ) U n l ",
"8 I P s n.m.s 7 y M t.x.g.V u.u.[ n O. .@.Y e.M.).F t.V V ' #.$.$. .Z ) ( L ~ ! ( c Y z.@.) F G c. .) ) e.Y O.) c Y D U ' ) n c ",
"& I ;.s >.I q y y n t.x.z.U i.i.' N  .#.O.Y @.u.c.D t.V V )  .@.....Z ) ( L ] ` [ F Y @.) G F ) N.) A G h.) @.@.U U N U ' r.U , ",
"= P j g K K q 9 y M w.x.d.) @.O.L n G @.e.Y ' +.) C t.V M ) O... .#.D ) U L ] ( ` ) O.X.@.G ) ) /.) G Y i.) e.' F F V R ) U m l ",
"7 P g k s P q 3 y M +.G.u.O.X. .+.c ) #.z.D ) +.) D [ N M ( ) | ..@.Z ) N M ( L ' ) Y @.x.Y @.) x. .X. .h.Y w.' v R N V w.R c c ",
"2 P j g a s t 4 y M +.G.i.O.O. .+.N  . .e.Y O.' u.( ( N M L G  .k.h.m ) n n U M [ U N +.K.Y ' G )  .@.X.x.G Y ' V ( N b w.r.V c ",
"2 j f i k k a 3 y M u./.x.O. . .U n  . .#.@.@.+.x.[ ( M M M V  .k.i.m [ V M ( M ( F U u.G.) N v X.@.i.@.x.Z m U m U U m J U U c ",
"X g p i g k a 3 H M x.~./.O.#. .+.c #. .h.G ) +.G.t.( M M M N G i. .l +.F V ' M U L U ' ' ) N D i.X.X.@.i.D N Y v V U V U N J c ",
"< f p p a k a 2 y B z./.(.O.h.#.+.m Y #.z.) [ +.G.i.U n 0 ; V D z.X.D m m ( ` N ( ( N v N N { O.x.G  .X.e.F +.) m U U L N L U N ",
"< p p p a k a 2 w M i.c.N.@.j.h.@.m  .*.j.) +.+.x.@.V L 0 + - U i.x.# - ( ( [ M U L , V u.' ) ) c.)  .@.i.F ) ' m U L J c N N J ",
"< f p p a k a 4 s M z.G.x.&.j.j.i.m  .h.k.) [ O.G.i.n N M 0 + * u.c @ U ( F [ V ' U c ) u.U ( O.c.) Y X.u.F ) ' v L ` N b N b N ",
"< f p p a k a 5 H M x.~.c.@.j.h.x.Z @.l.k.G ) O.x.) U L M L n @ O * ( ( U [ [ V ` U m ' ) D +.i.c.G F  .w.F ( ( c U r.b N L N b ",
". f p p a a t q K M x.'.~.X.Q.c.h.Z h.!.l.W X.@.@.Y O.U 4.M n c L ` ` ( u.' w.V 4.U M ' +.) +. .c.Y ) O.) N ( L N ` s.c M L V N ",
". g f f k a a t ~ M k.'.~. ._.Q.i.Z j.Q.j. .&.k.x.G @.w.Y.M n : M L w.t.w.U g.N 4.U M ' M.+.G G x.G ) +.U m [ ( M ` 4.L c N b J ",
"X h f p k g a t ~ n k.).c.) c.j.@.A c.Q.l.X.&.x.#. .@.w.Y.L M n M U y.[ [ [ [ N U N N ' G.O.A ) x.Y Y @.) F r.` M ` ` I c M v v ",
"< h p i a a a t ~ n c.OXc.X.j.h. .Z Q.^.!.&.i.z.X.G Y ' ` M ( V n ` y.y.y.y.t.U U c ( ` x.) C Z N.Y D ' O.U ` ` L ` T M 0 N V 0 ",
"< =.i i f g u a L n c.}.z.O.~.X.G Z Z.).OX&.X.&._ O.' w.U ( V U ) V M.+.w.w.g.U U U ' U s.F n U G.G ) O.+.V U ` M ] L c b N M 0 ",
"< =.f f h f u q ] n u.}.c. .c.&.) A !.^.+X*. .) t.[ [ [ L ( V [ w.F w.) w.+.d.V N ( ' N s.U , V k.) +.i.@.V L ! M ` L N N N M 0 ",
"< f f f h h a 9 ` n x.}.i.) z.Z.@.G !.^.#X&.) ) +.{ y.[ U U N w.d.F { F +.+.g.F F { ) n w.( n ( a.) O.e.' U U ` M T U J m N M 0 ",
"< f f f f -.g 3 L n L.~.e.) k.'.c.G j.~.#Xo. .i.O.( w.' U V N ' g.) +.) t.+.u.V u.' [ F +.) N N w.G ) O.R U ` ` M ` U V v V V c ",
"< g k a g <.;.3 L n G.N.z. .j.'.G.A z.Q.].X.X.G.O.{ w.[ ' U ' [ w.[ i.' i.+.i.F u.) ' ' u.[ N n { F ' @.R U T ` M ] T N b U U 0 ",
"< g f t a :.P 3 B n x.u.x.O.c.Z.x.G k.c.!.X.&.G.G ( u.y.' F +.O.+.' u.{ w.[ +.V [ U U { x.w.N U +.U O.w.' J L H w ] U N b R U 0 ",
"X f a e t d s 9 B V g.u.z.O.!.c.i.G x.k.i.X.&.c.m m u.d.U N ( ) +.[ d.[ +.( U N +.` ' [ d.' V ) d.U ( 2.' J H M 0 ` L N b ` L c ",
". a t t t s y w ` L [ g.z.) G./.i.Y k.k.X.) @.k.' m s.d.U ( ) { ( ( d.[ w.( U ( [ U w.y.r.` U U y.N ` r.2.M M M 8 ` L N b R L M ",
"6 5 k e   = K q L B [ y.u.) k.x.i.F w.x. .m +.G.[ n 4.s.` N [ [ V ( s.( w.V ( ` ` M U ` ` ] U U ` N T ` ` M H q 9 I ` L c ` L 0 ",
"1 a d D.U.0.6.q M ` ` w.r.V @.G.d.F [ z.x.F [ x.N : ` s.U V y.F.( M 4.` y.n M ( ` c L I M I ` ` ~ L ` I ` M H 7 = ~ I ] J ' M c ",
"X a d W.wXS.5.q L B ` r.[ V X.x.d.U w.u.M.) u.g.V M s.F.( M ' g.' N 4.( 4.N I L ] c M I M L 4.L K y L L ` y H H 7 1.I L J ' M n ",
":.a Q T.,X,.q y ] L 8.v.m.n t.&.[ V F.G.d.F w.{ V M s.M.' m ( d.( L w.N ' L [ I ` M L ] I J M = ~ M r M L 9 9 y = H ` J U ( n M ",
"<.5 ^ E.,X~ 7 y S.s.] J.3Xd.[.(.M.u.XX2X(.i.G.G.d.w.M.F.g.+.g.L.g.y.L.g.M.y.M.F.F.d.s.J.F.d.s.] ] s.s.s.4.I 3.v.5.L J R ( w.n M ",
"k t ,.%X,Xv.S.T.4XwXwX,X&XXX@X X@X@X2X2X-X X@X2X2XoX1X@X1X}.@X2X2X=X3X2X3X=X=X=X1X&XoX&X1X&X.X=X&X&X.X&X*XE.R.T.T.4.b U D z.N c ",
"X / 9.] ^ v.%XU.T.q.T.R.n.M.d.K.(.}.}.).'.)./.G.M.M.K.K.(.~.~.(.(.(.L.G.(.(.G.M.g.g.M.g.f.s.[ r.] ` U 2.2.T I ` I ` N U v w.F c ",
"2 a ^ 7.K 9 y M & = 0 I s.` w.O.+.O.u.k.z.i.z.u.O.w.i.w.i.i.X.X.@.i.+.O.O.+.+.t.w.[ [ F N U N L M N L N V M J M M I M U R ) ) n ",
"6 5 Q A.f.r - 0 ; ; > 0 M ( ` d.z.e.e.i.w.+.d.M.w.e.z.e.i.x.) F G O.O.O.Y O.e.@.z.e.w.' w.w.d.R ) +.( ( ' ) U M M L M N ) @.' m ",
"2 s 9.<X4X{ 0 U U I 4.] ` ` N U w.O.' ' ' 4.4.' w.O.Y ) e.x.d.e.e.e.e.e.O.@.w.@.@.d.+.' +.' R R ' w.r.[ ' ' ' ` H I H N Y ) ) n ",
"2 d S.W.;X} { f.A.v.J.J.J.F.d.d.d.u.w.r.4.r.d.d.r.@.) ' d.M.B.z.K.N.M.x.M.z.z.M.M.K.d.d.d.d.' 2.d.d.r.4.4.( ` I H I H L O. .@.m ",
"t d 7.<X6X8.P.! 0 ; ; 0 , : , : : - : 0 8 ; 8 0 0 c c l m n N M n c n c n c n N m M 0 M b M M M L M w H M 0 0 0 = y M L +.) O.v ",
"t P q.4X4Xp.I.n > % > , - % - 0 , - % = ; ; ; % % @ - - : % % - * * : * - - - - - * % % @ + % %   + $ & + + % $ o q H L @.W ) z ",
"4 P A.I.P.p.L.[ ` r ( N M U N r.w.` N r M L L y N N ' ( ` ( ( N U N ( L L ` ` I H H H M I M L I 0 s s q 9 0 M 0 9 I I V i.h. .z ",
"3 d 8.|. Xp.`.4.( 0 n c n V M ` ` ( L M y H M > 0 M ( V ( F U , V c N N n ( I N N n c 0 N 0 M r 9 w w q 9 M L 0 y 1.L M e.c.) l ",
"3 P f.|. Xa.{.[ N n , V ) F U [ [ ( V M M H B r ( V U +.t.C { ( F n U ( n ( ` ( L c N N N M ' L 0 y K I M M ( L = ~ I c O.z.F l ",
"3 1.f.oXqXa.}.w.N V g.K.x.{ @.w.u.' F g.` N U ` u.F +.}.'.X.x.X.)  .) +.F ( ' w.[ U ' w.) l d.U N M 3.b.` ' F.y.; ] I 8 ) i.Y l ",
"w I f.{ _ a.@X[ F F u.}.(.X.O.e.N.X.' G.t.U ( F u.D c.#X].X.*.&.&. .X.X.G O.O.u.) O.k.x.@.A z.X.Y U 4.b.w.O.C.d.> ` ] 0 ' ' U v ",
"s y v.( C x.@X[ U U i.}.).@. .@.G.@.X.x.U U +.) @.m c.#X'.@.*.c.j. .k.i. .@.X.x.O.) c.i.@.A c.h.X. .u.z.u.X.c.k.0 ` ] c +.@.R c ",
"q w v.g.F.C.`.[ m Y i.~.^.&.O.O.c.#. .k.: F i.u.X.x Q.#X^.o.*.l.Q.G j.h.X.X.@.c.&.W c.@.#.A !.j.&. .u.g.i.X.c.z., ] ] M ' d.( , ",
"g s 5.8.H.x.(.' c ( z.G.'.@.@.#.Z.X.X.c.: F +.a.k.) Q.].l.S *.Q.j.S k.c.k.o.&.h.@. .h.Z.| A l.@.h.W d.g.@.) G.x.- 1.4.L U w.( M ",
"g 5 1.8.L.H.L.V n ( x.^.$X@.h.h.^.@.i.u., U y.+.G.@.k.).*.S l.Q.j.S c.~.h.W &.i.x.&.Z.^.*. .!.@.&.D d.g.O.) G.z.: I 4.N F U ) L ",
";.5 d ] p.V.L.( N ( k.'.$X&.j.Z.+X@.i.u.N [ y.[ x.) h.OXQ.o.Z.Z.^.| c.!.X.A i.c.x.&.Q.k.j.X.Q.@.O.F s.s.+.[ F.z.0 L ` N D U ( V ",
"a a t ^ [ y.x.F N ) u.'.'.&.Z.~.#X_ +.[.y.y.' ' G.X.c.+XZ.X.Z.~.^.A k.~.&.) i.u.i.&.Q.@.@.X.k.X.) U s.s.y.w.x.x., I ~ L n { U N ",
"a e t H v.f.w.N n U u.(.}.i.&.k.OXi.O.H.g.( +._ k.W c.8X^. .Q.c.^.W *.Z.&.X.k.O.e.X.k.X.@. .c.@.) F t.g.d.e.N.d.r ! L M U ( F N ",
"k 4 s d 3.J..X( c F k.(.OXu.@.@.~.@.g.G.g.[ +.+.x.W Z.>X^.W &.k.Q.A &.Z.&._ k.+.x.@.j.o.&. .N.w.) F u.x.k.@.M.u., ` L M U U F c ",
"a 3 t y s.b.L.' c D u.G.OXz.&.@.Z.X.x.C.x.+.' { x.Z Z.$X~.W i.&.!.W k.Z.%.X.x.i.x.#.j.o.*. .x.O.Y U y.x.x.) x.w.: ] L L U m V , ",
"t 5 y K b.r.r.' c m +.x.OXz.z.z.~.&.u.k.z.' [ [ i.A k.^.^.X.&.@.h.&.&.Z.&.) G.z.x.@.c.*.*. .x.@.R U y.x.C.) z.[ : ` L I U M V c ",
"5 5 P 3.4.4.y.U c n %.C.@Xz.h.k.!.i.i.x.z.+.[ +.u.m Z.'.G.) u.%.X.W X.&.%._ +.N.x.@.Z.*.X.G k.+.' U y.g.G.' M.y., ! L M U ` U c ",
",.s K 1.I 4.M.[ m C %.G.@Xk.i.k.x.&.k.x.u.w.[ t.&.m '.'.Z.X.@.(.'.m _ a.E [ x.d.i.@.!.h. .G u.' w.) +.g.M.+.M.g.0 ~ L c ( d.' c ",
"0.H >.b.b.b.M.' V F t.G.OXk.&.z.G.@.u.u.w.' +.x.@.) x.>XG.E }.(.>X>X) +.u.F x.d.i.i./.z.) W k.{ w.( [ y.g.+.M.F.n ^ ! M ( d.' n ",
"0.H 3.b.s.y.M.[ V ( i.H.OXx.&.&.Z.X.X.C.F.( u.g.t.F G.(.x.C.`.(.5XeX(.u.[ V w.d.u.e.c.X.A A k.) w.U [ [ y.[ z.K.r ! I M U ) V n ",
"~ K v.J.4.s.K.[ c F u.G. Xk.i.i.x.@.O.G.t.' u.a.%.X.C.(.t.+.V }.eX9X(.u.F U d.d.g.i.k.X.G G x.O.y.U ( y.g.U F g.> ~ I M U V U V ",
"y ] s.s.4.w.s.( m V t.F. Xu.i.x.x.+.+.G.t.) u.g.u.) H.H.F ( [ `.9X0X(.+.V U y.y.k.O.i.X.G Z k.+.[ ( [ y.d.U * n 9 K ` L ' ( ( c ",
"M 4.r.` [ [ y.' n V t.x.XXu.i.x.u.O.w.F.w.F t.u.k.) (.G.F %.g.G.>X9X~.' m U +.y.k.[ u.@.Y m u.+.) U [ y.g.' m 0 M ^ ` M ( ' r.m ",
"( [ s.s.y.y.g.w., F u.g.{.i.i.x.k.O.u.G.y.U g.k.u.O.G.a.{ M.d.x.>XqX).+.c V w.g.k.[ u.@.) C z.O.t.( [ g.g.( g.N 0 3.] L ( w.[ V ",
"( [ F.L.M.M.G.+.n ( p.g.(.%.z.N.x.O.t.F.y.( x.x.k.i.K.u.( x.y.x.8X0X).w., V t.k.k.) u.@.' D k.O.' N ( y.g.U J.r.= 1.] L ' y.' V ",
"U d.L.K.G.G.F.[ V V y.F.{.t.i.N.x._ [ F.w.( g.g.x.u.~.x.U F.y.x.8X7X~.w.c V u.g.C.) +.@.O.D x.&.+.U [ 4.y.( 4.F.0 3.3.0 r.+.w.V ",
"( g.(.F.z.g.g.[ m V y.G.L.O.i.G.K.+.+.F.+.( g.x.u.+.G.k.( x.r.i.:X>X~.+.n U d.x.G.) +.O.w.D x.+.' L { [ f.[ [ {.M 3.0.M r.[ y.m ",
"{ d.(.K.g.u.g.[ m V y.F.u.) i.(.K.+.[ F.[ ( g.x.i.&./.&.( g.w.i.'.:X~.O.N F u.C.G.{ e.+.w.Y x.) +.L [ [ f.U ` F.M ~ 4.L ` [ d.V "
};
