/* XPM */
static char *a89c08c94b8c434ee0d38c62aefffd967oNiMHZXkUyAhQSD[] = {
/* columns rows colors chars-per-pixel */
"64 64 256 2 ",
"   c #171309",
".  c #171715",
"X  c #0F1413",
"o  c #28120A",
"O  c #3B1507",
"+  c #2B1714",
"@  c #361A15",
"#  c #320D0B",
"$  c #3A271B",
"%  c #2E2C1A",
"&  c #0B1A28",
"*  c #1A1A28",
"=  c #2D1A29",
"-  c #072828",
";  c #182728",
":  c #09342B",
">  c #193327",
",  c #072B37",
"<  c #182B36",
"1  c #05363B",
"2  c #193638",
"3  c #262A2A",
"4  c #372A28",
"5  c #29342A",
"6  c #38352A",
"7  c #292A32",
"8  c #342C36",
"9  c #283838",
"0  c #333B35",
"q  c #383937",
"w  c #182F1F",
"e  c #490D05",
"r  c #4C1B0D",
"t  c #461508",
"y  c #54190B",
"u  c #4B1B13",
"i  c #471915",
"p  c #541D13",
"a  c #551B1A",
"s  c #53080C",
"d  c #621C07",
"f  c #57220A",
"g  c #4D2314",
"h  c #45241B",
"j  c #4C241B",
"k  c #4D2B1C",
"l  c #462918",
"z  c #542313",
"x  c #5C2315",
"c  c #5B2C15",
"v  c #54251C",
"b  c #532B1C",
"n  c #5B2C1D",
"m  c #582819",
"M  c #4B341A",
"N  c #54321C",
"B  c #5C331C",
"V  c #59381D",
"C  c #46230B",
"Z  c #642C1B",
"A  c #662818",
"S  c #63341D",
"D  c #6C341D",
"F  c #6A3918",
"G  c #753719",
"H  c #6B280C",
"J  c #4D2B22",
"K  c #452B26",
"L  c #532C23",
"P  c #5B2D23",
"I  c #572A26",
"U  c #4C3324",
"Y  c #46342C",
"T  c #4C342C",
"R  c #4C3A2C",
"E  c #463827",
"W  c #543224",
"Q  c #5B3324",
"!  c #5C3A25",
"~  c #54342A",
"^  c #5B342A",
"/  c #543B2C",
"(  c #5C3C2C",
")  c #533B24",
"_  c #4C3C33",
"`  c #473A37",
"'  c #523D33",
"]  c #593934",
"[  c #452C3F",
"{  c #642B23",
"}  c #623424",
"|  c #6B3424",
" . c #643B24",
".. c #6A3B25",
"X. c #62352A",
"o. c #643B2B",
"O. c #6B3C2B",
"+. c #6A352A",
"@. c #723B24",
"#. c #733C2A",
"$. c #783A27",
"%. c #643C32",
"&. c #6C3D33",
"*. c #683A37",
"=. c #723D33",
"-. c #793D34",
";. c #672C32",
":. c #4F1929",
">. c #1A4439",
",. c #074438",
"<. c #27453B",
"1. c #36443A",
"2. c #78421E",
"3. c #49422C",
"4. c #5A432A",
"5. c #4B4334",
"6. c #4B433D",
"7. c #464739",
"8. c #54443B",
"9. c #5A4738",
"0. c #5D5A3D",
"q. c #65422C",
"w. c #6B422C",
"e. c #684427",
"r. c #73432C",
"t. c #7A452C",
"y. c #784629",
"u. c #644333",
"i. c #6B4333",
"p. c #634A35",
"a. c #6B4B34",
"s. c #644439",
"d. c #6C443B",
"f. c #654A3B",
"g. c #6D4C3B",
"h. c #724533",
"j. c #754A34",
"k. c #7B4B34",
"l. c #734438",
"z. c #744B3B",
"x. c #7B4D3B",
"c. c #7A4635",
"v. c #6C523D",
"b. c #68543B",
"n. c #7C5135",
"m. c #74523D",
"M. c #7C523C",
"N. c #78583C",
"B. c #64552E",
"V. c #073C46",
"C. c #153A45",
"Z. c #083C51",
"A. c #113248",
"S. c #273C44",
"D. c #323D43",
"F. c #383C48",
"G. c #463E48",
"H. c #064548",
"J. c #174648",
"K. c #074756",
"L. c #194A56",
"P. c #0D575D",
"I. c #175352",
"U. c #294948",
"Y. c #3B4445",
"T. c #384848",
"R. c #2A544A",
"E. c #365549",
"W. c #394C54",
"Q. c #2A5756",
"!. c #395855",
"~. c #284D59",
"^. c #155563",
"/. c #356265",
"(. c #365D5E",
"). c #4A4443",
"_. c #454747",
"`. c #564844",
"'. c #4B5548",
"]. c #585448",
"[. c #434B53",
"{. c #4A5857",
"}. c #575A57",
"|. c #504253",
" X c #644B43",
".X c #6C4D43",
"XX c #694C4A",
"oX c #734D43",
"OX c #7C4D42",
"+X c #774847",
"@X c #6C5244",
"#X c #6A534B",
"$X c #675849",
"%X c #735343",
"&X c #7C5442",
"*X c #7B5945",
"=X c #755A4B",
"-X c #7C5B4B",
";X c #765649",
":X c #675A55",
">X c #7B5C52",
",X c #755953",
"<X c #744D50",
"1X c #596459",
"2X c #4C6455",
"3X c #7A624C",
"4X c #68655A",
"5X c #796556",
"6X c #756850",
"7X c #4F5A61",
"8X c #586A68",
"9X c #576E6C",
"0X c #676769",
"qX c #786B66",
"wX c #76726A",
"eX c #6E756E",
"rX c #615C62",
"tX c #83492A",
"yX c #824E34",
"uX c #834C3B",
"iX c #894C38",
"pX c #83533C",
"aX c #8A543C",
"sX c #895639",
"dX c #90593B",
"fX c #8B643D",
"gX c #835543",
"hX c #845A44",
"jX c #8B5C44",
"kX c #835B4A",
"lX c #8C5D4A",
"zX c #865547",
"xX c #935D4A",
"cX c #865D53",
"vX c #894C47",
"bX c #8C634D",
"nX c #896348",
"mX c #94654B",
"MX c #97674A",
"NX c #8C6A54",
"BX c #866657",
"VX c #966C55",
"CX c #8D735A",
"ZX c #96735B",
"AX c #93724E",
"SX c #A16C54",
"DX c #857868",
"FX c #987462",
"GX c #8A6E6B",
"HX c #A07660",
"JX c #6D8578",
"KX c #6C7982",
"LX c #877A83",
"PX c #4E938B",
"IX c #66ABA7",
"UX c #8B818A",
/* pixels */
"0X2X}.}.0X1X{.}.{.}.].}.}.{.{.}.}.1X{.{.{.}.}.}.1X1X}.}.8X8X8X8X0X9X9X0X0X9X9X9X8X9X8X8X8X8X0X8X8X8X}.8X7X7X7XW.!.E.[.T.0 D.@ @ ",
"eX' $ E T ~ 6 ~ J ` ` Y R 5.7.).' _ ` ` ` ` Y _ ).` ` ` ` 6.`.).).).).6.`.).q ).` ` ` ).6.6.).).5.)._.7._ _ ` q 6 q ` q 4 Y @ $ ",
"qX8.o _ K > 0 8 0 F.G.` G.F.D.Y.Y.Y.T.T.[.{.T.T.W.T.[.{.{.8X9XT.[.{.T.D._._.Y.[.[.[.{.[.T.[.W.W.E.R.W.[._.T.T.D.0 G.U.Y.Y.<.# i ",
"wX:XY +X`.,.E.T R $X6X6X*X] `.5X6X6X$XR 9.6X$X$X@XU g.CXFXCXCX@X:X:X:X:X,X9.T :X5X4X5X8.T 6X4X4XqX] Y :X0X:X].6 _ {.2 E.rXW.@ # ",
"eX:Xs.h.s._.1.o.P hX$X6XfX4.9.FXCXBX;XJ ] BX>X,XoXj %XFXVXNXNX*X.X$X#X,X6X] u %XBX5X5X~ j BXqX5XBXA f 5X>X=Xv.s @.U.7.p. X`.# O ",
"wX:Xg.j.s.U.T.Y.7.>XoX;XAXz..XNX3X=X*XW p.BX=X=X;XJ 3XCXBXCXDX=X.X5X,X<X#X*.I ;XBX3XBX+.n NX5X=X5X! P GX,X%X=X= 7.W.T.-Xx.3.i t ",
"wX#Xq.+XJ.H.D.9 2 {.#XgXBX<X+XNX3X%X*XL u.BX%X-X;Xk *XVXNXZXFX=Xv.$X;X>X$Xu.z v.5X$X=X} z BX5X5XBXQ I 5X5X>X}.,.9 q 1 R..X`.t O ",
"LX].X.R.J.`.c.e.X.L.Q.n.lX=Xg.NX:X@X>XW f.BX@X=XoXk *XNXbXVXFX=X X$X,X,X$X*.I @X>X:X>XX.a 5XqX,X-X^ W hXcX!.2 :.n lX_.V.W. X@ a ",
"JX:X3.K.T. X'.W.7.L.L.'.nXm.OX5X-X*X*X^ 9.5X%X3X%Xb %XNXBXZXZX@X9.#X#X>X#X] n @XBX*X=Xo.g 3X>X=XBX~ S 3X:XK.U.4 q }.*XD.H.6.# j ",
"UX`.9 ^.).&.1.1 9 0.vXU.7XT.6.NX-X=X-X~ ' ,X.X>XOXb v.NXNXFXFXoX.X.X@X-X#XR n +X>XBXBXo.u >X>X,X*XY 9 7XU.@X5.< 1 D.*X).1 0 o p ",
"DX7.C.K.U.]. X] ..xXk.x.6.Y e.AXx.*XgXX.%.*XOXkX.XI x.VXVXFXFX@Xf.#X#X=X=X] { <XkXlXkX| x *XkX*X-X/ 4 ].%XOXOXt z %Xv.U.Z.A.+ t ",
"wX5.C.P.P.P.P.^.P.~.(./.Q.W.W.W.R.Q.!.S.U.!.W.Q.U.K +XNXNXZXHXN.f.<X%Xb.#X*.J <.!.!.!.Y.9 !.!.U.R.U.9 E.R.Q.U.J.J.L.J.H.Z., o y ",
"DX'.^.^.^.J.J.J.S.<.<.>.1.q 9 U.1.1.q 3 0 _._.Y.U.4 +XNXNXVXZXm.u.+X%Xb.#X*.j <.Y._.Y.8 8 Y.q D.D.8 8 1.U.S.9 < V.J.C.H.Z.< o y ",
"DX'.^.^.Y.O.&.^ Q zXc.vX:X'.m.HXcX*Xl.+.i.cXlXkXoXP x.VXVXZXZXv.4.@X@X%X;X%.{ +XjXmXbX$.| bXNXNXnX! Y $XbXgXzXr p &Xu.9 Z.< + r ",
"DX8.<.^.).O.E.P.W.'.=XT.|.Y.XXVXNX3XM.} q.-X*X*XzXN N.ZXVXZXVXl.i.;X%X&X.X/ x uXkXBXBX+.P BXBXBXNX' 5 _.<.@X].S.J._.gX`., 3 o y ",
"wX<X' K._.O.R q K U.U.9.iXe.g.VX;X;XOX} o.kXzX%X*Xn hXZXVXVXbXa.4.;X@Xm.oXO.A m.bXnXnXO.c -X-XBXcXo.G jX XL.S.@ % ` j._.V._ i u ",
"wX3Xs.9 J.`.k.e.G.>.7.c.N.w.-.mX*X%Xx.^ u.kXgXM.&X} x.VXVXmXbXp.s.%Xx.*Xg.&.A pXbXhXkXO.z x.kX-XBXr.q.3XxX7.,.:.f *X;X>.q *.% u ",
"wXbXg.l.U.P.T.D.>.f.iXj.uXr.a.NX&XkXzXX.i.kXhXhX%X} x.VXAXmXbXg.u.%Xz.*Xv.i.A M.nXhXgXO.m M.kX;X6X=.| NXgXvX5.> S.[.H.2 d.g.j f ",
"GX>Xu.y.Z >.1.~ ' vXjXB.pXO.i.lXm.gXgXX.i.kXgXjX%X} x.VXAXmXbXg.f.%Xj.&Xz.h.A M.jXhXkXO.m hXhXm.*X%.$.lX@X*X%X$ h q <.i.r.9.a t ",
"DX=X&.r.+.q E.=.#.&Xn.t.aXu.u.jXn.M.x.Q i.hXx.hX%X} x.VXMXmXlXg.f.z.l.x.g.&.A x.jXjXlXO.n hXhXm.OX..+.g.N.x.kXx H T.1.g.f.`.L y ",
"DXm.^ +.0 9 8.*.( c.iXiXzXe.a.hXpXM.j.P i.&Xc.jXM.} c.mXMXmXlXz.f.z.l.z.z.&.A x.jXjXlXO.Z pXjX&XgXr.m g.pXiXOXz A 9.2 ` d.9.i f ",
"wX%X( $.} 4.@.q.=.j.N.N.x.@.r.pXpXx.j.Q i.M.k.jX%Xn r.jXmXmXlXm.f.g.j.x.%Xl.Z x.jXhXlXO.c sXjXhXhXu.x uXOXz.j.x d x.p.i.l.o.i f ",
"qXz.! ..! i.e.&.r.u.x.dXn.o.O.nXsXM.c.n o.M.x.jX%XQ r.nXMXMXnXm.f.m.x.%X*Xl.{ x.hXpXlX#.A uXlXgXgXo.Z k.%Xh.j.m v  XuXt.9.u.z y ",
"GXb.o.V | u.| o.( r.iXxX%Xo.} lXnXpXx.n o.M.x.aX%X} c.mXMXMXjXj.f.v.j.x.%Xi.Z x.hXM.lXr.Z uXxXhXzX..n h.M.j..XP P i.l.l.g.%.i p ",
"DX Xw.B %.^ Q o.o.tXyXlXc.O.o.jXsXpXx.o.o.&Xx.pXz.} c.MXSXSXdXg.p.OXz.OX&Xi.} x.hXaXxX#.A uXlXjX*XO.x uXhXM.z.I x z.d.i.q.o.a f ",
"qX@XO.c P X...o.o.yXk.j.c.O.o.dXaXpXx.X.} &Xj.pXM.X.j.AXVXMXdXu.p.oXOX%X%XO.n j.pXsXxX#.A uXhXgX*XO.Z uXpXM.z.P x z.d.l.a.o.a p ",
"5X.XO. .o.O.O.o.Q yXk...yX+.o.aXpXpXk.X.o.&Xx.jXx.X.j.AXAXMXjXi.p.%XoX%X%Xo.m l.pXiXxXr.A x.gXx.&X} Z k.M.m.z.I p g.d.l.a.( u y ",
"DX.XX. .! +.#.q.Q yXpX..pXo.o.sXyXx.k.} O.&Xx.jXz.{ r.AXVXMXnXd.u.oXoX@X%X%.z l.hXaXxXr.A k.&XM.kX} { x.M.m.%XI u u.d.l.w.( i y ",
"BX X^ +.! O.#.Q Q k.pXi.pXX.o.sXc.c.j.Q O.x.j.pXm.n #.MXMXmXnXg.p.%X.X@X%X&.p l.hXjXlXr.x k.*X&X*Xo.n gXhXg.;Xj u i.u.&.i.' @ y ",
"BX8.~ X.! O.t.X.Q k.pXh.x.} } sXr.c.j.P o.z.c.pXN.n -.jXlXmXnXu.f.%X.X@X@Xl.p l.gXaXjXr.x x.*XgX;Xo.v gX*Xa.%Xj u i.i.=.i._ o e ",
"cXq 5.=.i.e.#.Q Q k.n.q.x.Q Q yXr.c.l.b o.j.c.pXn.{ c.&Xv.NXjXo.s..X9.].@Xd.r l.&XpXhXw.x x.*XgX-Xo.z OX&Xm.%Xj u i.a.l.l._ o y ",
">X1.8.+.} q.r.I Q k.n. .M.Q ^ c.r.k.l.g Q l.h.x.k.{ &Xb.9.3XhXO.9.f.9.].@Xd.t i.hXpXhXw.z k.&XgXkXX.r i.m.*XoXj u i.z.z.z.` . y ",
";Xq 6.#.V r.k.P Q pXM.w.M.L ^ j.c.t.r.L ^ r.t.M.k.B =.:X1Xg.hXu.9.9.{.1X*.*.y O.hXgXgXh.y c.&X*X*XX.r gXz.*X%Xh i i.j.k.x._ . y ",
";X0 `.uXe.r.r.P n n.x.O.M.Q X.M.r.k.c.L ~ O.t.pXh.^ J 8XIX4Xv.u.] _ 1XJX]./ r f.gXgXgXw.p x.*X%X&XX.u OXm.%X%Xj i l.j.h.l.' . e ",
".X4 _ uXn.c...P n n.M.r.M.o.X.M.r.k.x.L L r.r.M.x.b X.8XPX9Xf.j._ 1.2XPX2XU r i.hXpX&Xw.z x.*Xm.&XX.u z.m.%X%XI u j.j.w.l.' . e ",
"%X4 U t.n.k.r.Q P n.pXc.k.O.} pXj.t.c.j L h.r.M.k.B -.eXPX9XkXj.T._.9XIXeXo.r =.hXgX&Xq.p &X*Xz.*Xo.u l.%Xz.oXL p h.h.r.j.~   t ",
"@XT k G r.c...n P n.pXc.c.O.} pXc.k.x.j L h.r.pXM.N } 4XIX9Xm.w.D.D.8XIXKX! O i.hXpX&Xo.r %X*Xm.-Xo.u i.%Xg.z.v r w.O.h.j.~ + r ",
"p.^ Q G ..#.+.n Q n.n.x.k.} P pXr.t.c.j J O.t.hXOXh %.{.PX8Xu.i.D.9 !.PX9X) t h.M.x.&Xo.r x.*XM.kXo.u i.m.g.z.v r i.h.h.r.^ @ t ",
"p.X.} y...#.e.} %.M.n.pXM.n P k.@.t.c.j J ..r.pX&XP I 1.<.' k.l.q 6 1.1.7./ y =.M.M.*Xo.r j.&XM.hXo.r i.g.a.z.n p a.l.l.e.^ @ t ",
"p.^ n @.} | +.} u.N.n.pXpXn P c.@.$.#.k I O.t.x.m.b | 9.5.M.n.a.U X.Y 5.o.s.t d.&XgXkXi.r l.%Xx.&X} t i.g.a.g.I p i.l.l.e.^ i t ",
"%.Q } P m  .o.{ ( n.k.x.hXQ n r.@.$.} j ~ O...h.M.k o.x.u.m.pXu.( u.) T f.u.u +.hXjXjXz.t x.N.&XhX^ i g.s.u.u.J i w.O.o.u.W @ e ",
"u.W } Z m  .O.X.^ j.k.c.hXQ P @.Z @...J L } ..j.x.j o.x.g.M.aXi.( q.( ~ p.%.u O.pXsXjXo.r c.*X&XhXX.u q.d.u.i.J u r.O.o.X.Q i e ",
"9.E L n W ( q.) ^ r.t.x.M.W n @.S D O.L L ..@.j.c.g O.aXhXjXdXw.^ w.u.%.i.X.u #.pXsXhXo.r r.N.&XpX%.g o.z.i.w.j t w.o.u.N W $ O ",
"i.W I n ^ &.=.V ^ r.r.pXj.b g r.| D O.L I O.r.r.h.g O.dXmXdXdXO.^ w.i.d.z.o.t #.pXsXpXo.r c.N.x.j.P r o.g.i.i.v e i.%.X.c b @ e ",
"-.~ U l I ;.*.V ^ ..r.c.j.W b r.Z Z O.J b ..r.r.h.j } yXaXsXsXw.~ q.l.z.m.o.t | pXyXk.o.p c.pXM.pX} r w.O.o.e.u e i.8.( | L @ t ",
"9./ L C % 5 ` Q ^ ..t.O.m.( o.y.D Z O.h b ..@...O.h B t.yXyXyXq.T ! i.d.j.o.t D yXt.k.o.v c.nX&XjX^ t w.o.w.w.j t T 5 $ B l @ t ",
"q.^ U C j 3 0 W ^  .r...j.o.%.t.@.D O.h L O.@...O.j B tXiXiXyXq.R ! O.o.w.! t D yXy.k.u.p j.nXx.jXo.g q.o.o.O.u O K 3 ' r.~ @ e ",
"4.] W c P 3 <.~ W  ...h.q.^ P k.| D j.k W O...r...k c tXtXiXyXw./ Q } P  .Q t | k.y.w.u.t l.M.l.j.X.g  .u. .O.j t 4 - _ S U @ t ",
"f.U W { 2 V.9 < A.E F ..p.j L r.D @.k.h ^ ..@.x.F C V G tXtXG O.9.}  .V X.P t A t.y.c.i.O o.c.e.b.%.J %.( ! ( : - 3 ; - E N # C ",
"$X( T < 1 M G b @ V.[ S B.v k F @.@.h.J k h.r.l.&.i Q G tXG G %.R W  .! } n O S y.y.yXg.i S ....j.4.b q.D ^ 9 . e A Q ; & K @ h ",
"$X~ 6 V.9 D %.0 I 2 1 ` =.j x 2.f c i.W W w.e.O.8.@ n G tXF D u._ ^ | B n b O B G G 2. .O B S V ..Q h q./ > : = . 9 ) J & 3 o O ",
";XR 9 H.4 { 9 1 : % h 9 <.3 6 D f S o.k W ..S e.4.C c G $.G G e.' } | B N b t A Z G @.^ h o.X.b ! ' 3 q 9 $ a - & * l b - -   y ",
"XX6 J.K.2 I J 4 L =.F f 4 ; U @.A D c k N y.F r.#.v c G G G G S U N S B N v t I S G D z O Q o.X...N   4 } y.4.u o $ n 4 , : . # ",
"b.$ U.Z.H.C.0 9 q G.q 0 0 3 4 6 6 4 0 9 0 7.` q D.4 g H G G G } W M N Q Q P @ > q 6 5.1.5 1.0 5 1.9 = 9 U.9 2 2 - 2 5 - - , & # ",
"0.4 S.V.V.1 1 V.1 1 , , 2 1 A.< < ; 2 , , 2 9 2 ,.3 k H G F G ..^ k b n Q W + > 2 2 9 2 , 2 2 2 w < - > < & < < , A.- - - - & t ",
"].q >.K.A.M l 8 M ;.b B T 3 $ f y f r i k ..S w.K h N G G G G e.R K v m M b i J W S $.| g S r.r.t.M + 4 4.M ! k o v g 3 - < X O ",
"}.6 < Z.9 ..E J.U.5.R Y 5 : 3 H f H c 4 _ j.w. Xs.$ V G 2.G D w.R l l b W K $ Q Q S e.p.K u.e.e.=.L X < - 0 ` 2 - < M n , - X + ",
"].7.3 K.J.] 4 , + C.V.3 / $ l Z d H n 4 ~ r.4.'.{.5 ) t.y.G F e.' l l g J Y $ k W.6 %.z.J ( &.O.e.g O U % 7 2 ; & 3 N 4 , -   + ",
"1X].9.2 H.6 ) ` ' 1 2 U %._ / Q d H ^ 4 R a.3.1.T.6 %.yXy.F r.w._ $ U J K Y $ U Q.6 o.a.l 4.u.Q S N u M ( Y - < O b N 3 ; @   + ",
"2X Xs.4 V.^.U.Y.<.9 _ h.9.` M F x D ..l Y @Xf.`.`.E o.k.r.n.M.a.R $ E U ~ 9.K W _ M  .4.U / ( ) ~ l % 6 4.) 6 ; - 2 1 , 4 h   $ ",
"1X`.8.E 5 K.Z.> > _ d.g.9.3.U ..c e.a.E R 9.f.@X XE ) r.w.k.M.p.3.7.7.8.5.].$ ~ O.V 4.9.T ~ ( 4.] U $ Y 5.R %.6 * 7 , 7 k $   @ ",
"}.q 6.4.3.C.~.3.8.v.b.8.9.E _ &. .a.@XY Y  X].'.`.6 R l.h.r.x.b.'.0XeX:X`.].6 8..Xo.u.9.4 U 4.9.! R K J s._ 8.E % 4 : 6 M $   @ ",
"1X[.Y.'.U.P.L.Y.T.1X'.7.}.0 6 u.d. X].6 ` :X}.}.{.0 ` 9. Xf.#X].6.'.}.).)._.4 ` `.9.s.' 4 E 5.6 3.5 7 0 R 0 T.9 ; 7 1 > 3 3 . @ ",
"2X{.(.T.C.J.1.R.E./.!.'.!.R.E.<.E.T.E.R.Q.Q.R.1.E.<.E.E.R.R.!.U.<.>.R.R.!.E.R.!.R.E.E.Q.Q.U.U.U.~.R.R.I.Q.R.R.Q.U.I.J.S.H.I.<.1."
};
