/* XPM */
static char *_cdabf3790884ccce7b08ac6d61736322jTSEKY7V2ZMHI1M[] = {
/* columns rows colors chars-per-pixel */
"64 64 18 1 ",
"  c #54593F",
". c #4F543B",
"X c #585E43",
"o c #5D6247",
"O c #4A4F37",
"+ c #454935",
"@ c #60664A",
"# c #414430",
"$ c #3B3D2B",
"% c #656A4E",
"& c #343424",
"* c #6A6E52",
"= c #2E2A1C",
"- c #232016",
"; c #707458",
": c #110F0B",
"> c #787A5E",
", c #7F7F63",
/* pixels */
"-.-&=+Oo. X  X&: -&=#Oo .X  X$:.==&$OXX.X   +:#$-&&OXX.X   .:&+-",
"=X=+$+ o*o;*%@#:o=#$$XX*o;**o.:X&$#$X *o*;*oX:O#&+&  *o*;*oo:$O=",
"#@+++O+.%o;@.X&=%+++O+O%o*%.X$-%O#+O+O@o**  +-o #OOO+oo%*X..-.X#",
"$ +#O .O.**o.$-=XO#+ .OO%*@ $--XO+# .OO@;% #=- .+#..OOo;%X+=:O.+",
"#.#+ oX .%*oX.#& #+ XX .@*@X +& +#.XX .o*@X O=.+#OXo . ;%X .&OO#",
"O.$$OOO..o@oOo+$ $$OOO..o@@OX.&X#$OOO..X@@.  & +&+OOO. @% .o&.O&",
"O#$=##$####+++$+#$=$+$$###+++$++$=&+#$###+++##+$&&+#$####++##+$$",
"%%@&Ooo@@XX@XO %@%$#oo@@XXoo..%%%#$o@@@XXoo.O%%%O&X@o%oXoo O@%@o",
".o@&#.XX X  .OO X@$$. X X   OO  %#&. X XX  OO  %O&..X XX  .+  @X",
"Xo@$+ . o@oX O Xo@+# . o@oX O Xo@O$ ..o@@XXO.Xo@ $...X@@XX.OXoo@",
"@@%##. @%%@Xo %@@%+$. o*%%Xo %@@%.$. o*%%Xo @%@%X&O X%%%Xo o%@@@",
"  X&$.     X.#.  X$&.     X #O  X#&O     X ++  XO=O.     X++    ",
"==&O+OOO++OO# +-=&+++OOO+OO#..-=&+O+.OO++.#O ===#O+.OO++.#O &==$",
":=#X. o@@oX  %+:=$X  o@@oX  @.:-$   X@@oX  oX:-&.X.X@@@XX X@--&+",
"-=$+..  *oX Xo$-=&#..  %@X  o#-=&#O.  %@X  o+-=&#O.. @%X  o.--=$",
"===&O..o%@o. o#===&O..X%@o..oO===&+.. %%@..o.====#.. %%@ Oo ====",
"=&&=#.X*%@o X%$-&&=$. %*@@  %#-&$=&. %*@@  %O-=$==O @*@@X.% -=$&",
"=$+=&.o**@%@@%O-&+&=.X*;@%@@% -&+&=OX*;%%@o%o==#$-+ %;%%%o@@&=##",
"&#&=-$O#$$O.O+$=#&=-&O#$$+.O+$=#&=-&+#$$+.O+#=#&=-=++#$#.O++=$$=",
"++. OO  ..O&O XO+O .O. O..&+ XO+O .O. O..&# X.+O. O. O..$$   +O.",
"..XXXoX@oXO=o%@ OXXXoXooX.= *@XO XXoXo@X &O*@XO XXoXX@XX$#*@oO.X",
"...X oo  .O&oo ...  oo  ..& oX...  XoX ..&.@X...  XoX ..$+@X . .",
"@   o%@X..O$@@oo  XX%@o..O$X@ooX X %@o...$ @@oX.X @@o...$O%@oo.X",
"%@ooo@%%o #&@@@@@ooo@%*o O&X@@@%ooo@@*@XO& %@@%ooo@@*@X.&O%@@%oo",
"++O+++++OO#&O.+#+OO++++OO+&+.+#++O+++++O+&+.+#++O+++++O+$#.O#++O",
"&$%OO@XOX%;%@%.$&@ +%o. %**@% #&Xo#@o..%**@% +&.@$@o O%**@%XO&O%",
"$.%+$oo#*;,*> .#O%.&X@#@;,*>XO+#%X& %#X;,*;@OO#@@&O%O.;,;;*O.$oo",
"#O%+#@X$.;;*%O+#+@O$oo$O*;*%O+##@ $X@#+%;**.++#oX$.%+#@;** ++#Xo",
".o*+$@o+ @;%+...X*.$o%+ @;*+..OX* &X%O.o*;O..O %o&.*.Oo*;.O.O.%@",
"%%*.#%%. X*@#O %%*X$@%..X*%#O.%%%@$o* . %*+OO@%%*$ *X. @;O+Oo*%*",
"=O&&&#+O#OO+++&-O&&=##.#+O+O+$-+$&=##.#+O+++$-#$&=$#O+#OO++#-$+&",
"-X-#&+X%%o;*%%$:o-$$$X@*o;*%@O: =&$&Xo*X***@X:+$=#& o*o%**@@:$+-",
"$o#O++O %o;%XX$=@#+++O.%X*%oX+-o+#O+OO%o**oX.- .#O#OO@o%*@X -OX$",
"#o+#O.OO %*@O#-=@O#+.OO %*%O+=-o.#+.OO @*%.+&:X +#.OO.o** +$:.X+",
"$.+#.X .+**XX#&&.#+.X .+@*oX+&=.++OXX.+o*oX+$=O+++XX.O ;@XO$=+O+",
"OX##   XX%*%.%O$o##   XX%**.@ &o+$.   X@** oo&XO$.   Xo**X %& .$",
"+#&=#$$$$+++#O$$#&=$#$$$#++#+$$+&=$#$$$#++#+#$+$=&#$$$#++#++&+$&",
"@XX&OXXXo  XXO.@XX&#XXXo .XXOO@oX$$XX @ .XX.OooX+& o @ . X.+X@X ",
"X@@&# Xo oX  O.Xo%$$ Xo XX  OOoX%#&  oXXX  .OXX%O&. oXXX  .+XX@X",
" o@$+ . ooXX O. X@## . o@XX O. X@O$ . X@oX OO X@.&.. X@oXXOO Xoo",
"@@@##..X@@@ X.@@@%+#..X@@@ o.o@@@.$.. @@% X.o@@@ $O. @@% X X@@@@",
"o@@$$ X@@oooXOXo@%#& X@@ooooOXo@%O&.X@@ooooO o@% &O o@oooo. o@@o",
"&&$$#+O+#++O#+#&&$$#+O+#++O+#+&&$$$#O++#+O+#+&&$$$#O++#+O+#+$&&$",
":=$o.XXooXX O*O:=&X  XooXX O@X:-&   XooXX Oo@--&OX.XooXXXOX*--&#",
"-=#O..XX%o  XX&-=$O..XX%o  Xo$:=$+.. X@@X  o+--&+O. X@%X  o.--&#",
"===$...X*@o. o#===$O . %%o..oO===&O.. %%@ .o.===&+...@%@ OoX===&",
"=&==#.X%%@o.X@$-&&=$. @*@o. %#-&&=$. @*@@ .%O-&&=&O o*@@ .@ ==&=",
"-&#=$ X;;@%oo*O-&#=&.X*;%%oo* -&#&=. *;%%@o%X-=#$-O %;*%@X%@=-#$",
"&$&==# ..O X  #=#&=-# ..O X  +=$$&-$...O.XX O=$$&-&. .O.XX .=&$&",
"#+$+$$+###+&+++$+$+$$++$#+$#++$+##$$++$#+$$++$####$++$#+$$++###$",
".OX@ooo%o@.=o%*XOXoooX%@@ = **oOXoooX@@@X&+*%@O o@oX@@@o$$*%%O.o",
"O..  XX X.+&Xo ...  XX X.O& @ ..   XX X..&O@X.O   XX X .&#@X O .",
"X. XX@@X..O$oooX..XX@@X...$XooX..XX@@X...$ @oX .XX@@o.. $O@oX . ",
"%ooXo%%%X +$@%@%@ooo%%%X O&o%@%@ooX%%*o O& %@%%o@X%%*o .$.*%%%o@",
". ........#&.... ........+=O... ...O....+&+ .O ........O&# .O ..",
"&$X+O .+.XXXXo+$& O#X.OOXXX oO$&. #X.OOXXX o.$&+X$ ..+ XX o #&#X",
"$O*O#@@+*>,*;o ##* $@@+@;,;;@ O$@o&o%OX;,;;* .$o%&X%..;,>*;. &X%",
"#.%+$oX$o;;*;O+#O@.$X@$ *>*;.+++@ & %$.*>*; ++#oX&O%#O%>*;o#+#XX",
"+ %+#@X$O%*%..O+.%O$Xo#O%**..O+O% $ @#+@** OO+O@X$.@+#o*;XO.O+oo",
"%*;.$** oo>*#. %*;X$%; oo;;#..%**@&o;Xoo;>+..@***$ ;oXo*>OO.o***",
"+.O$$OO+$O.O+#$#.O#&O+O$+.O+#$$.O+&O+O$+.O+#$$OO+&++O$#..+#$$OO+",
": -$=# %X @oo@&: -&&$ @o @ooo+:.==&&.o@ @ooo.:+&-$&.X% o@oXX:&+:",
"&o&O#+.X*o;*@o#-o$+##. *o;*%XO:X##+$..*o**%X :.+$O$..%@*;*oX-#.&",
"+@+#OO+.o@*@O =&%+#O.+Ooo*%O.&=%.#+.+Ooo*%..#-o #+.OOXo%* O+- X#"
};
