/* XPM */
static char *_14419a4f5cd4b25e5c36ab95cdd38a3PXDb8aCqS0YDHpvD[] = {
/* columns rows colors chars-per-pixel */
"64 64 126 2 ",
"   c None",
".  c #B23931",
"X  c #E35235",
"o  c #D34E37",
"O  c #E45336",
"+  c #DF5236",
"@  c #E65635",
"#  c #E75435",
"$  c #F85C33",
"%  c #E95635",
"&  c #DF5233",
"*  c #DD513A",
"=  c #F05732",
"-  c #ED5734",
";  c #F25735",
":  c #F15834",
">  c #E25436",
",  c #DA4F37",
"<  c #B43838",
"1  c #DE5136",
"2  c #E87536",
"3  c #FCEC88",
"4  c #DF5136",
"5  c #FB6030",
"6  c #DE5137",
"7  c #FC6A32",
"8  c None",
"9  c #E65434",
"0  c #ED5633",
"q  c #FCEB87",
"w  c #ED7738",
"e  c #F17A35",
"r  c #C34A35",
"t  c #F37937",
"y  c #E85435",
"u  c #DE5B3F",
"i  c #F6AF60",
"p  c #F6853A",
"a  c #FFD23C",
"s  c #FAE887",
"d  c #EA6937",
"f  c #E45935",
"g  c #E85336",
"h  c #FA9642",
"j  c #F0733B",
"k  c #F87D35",
"l  c #FDF78D",
"z  c #F5DF83",
"x  c #F4DF7D",
"c  c #F25B35",
"v  c #FEBC3B",
"b  c #EA5632",
"n  c #FCB93D",
"m  c #E5583B",
"M  c #EA5337",
"N  c #FF653A",
"B  c #FA8036",
"V  c #F6E287",
"C  c #FCAF37",
"Z  c #FFC73F",
"A  c #F9C042",
"S  c #FBC039",
"D  c #F08E4A",
"F  c #FACF73",
"G  c #DE5236",
"H  c #E05136",
"J  c #E05237",
"K  c #F5E384",
"L  c #F4E183",
"P  c #F3E083",
"I  c #FC7F34",
"U  c #FAB23D",
"Y  c #FD7C34",
"T  c #FBB03C",
"R  c #FDB23C",
"E  c #FCB646",
"W  c #E25235",
"Q  c #F5E584",
"!  c #DD5038",
"~  c #F2DF82",
"^  c #E25037",
"/  c #FA7A33",
"(  c #E15639",
")  c #F06A35",
"_  c #E55B36",
"`  c #F5E48B",
"'  c #F5AC3B",
"]  c #FBB444",
"[  c #F7A63E",
"{  c #FBB53A",
"}  c #DE513A",
"|  c #F7B243",
" . c #F9AD3B",
".. c #F6D16D",
"X. c #F2D477",
"o. c #F0DE82",
"O. c #EA7C39",
"+. c #F59B3C",
"@. c #F4D97B",
"#. c #FBB848",
"$. c #F7863D",
"%. c #F6B03C",
"&. c #F4E388",
"*. c #FA7D33",
"=. c #E46639",
"-. c #FBAB3D",
";. c #FC8335",
":. c #F9B042",
">. c #E25B43",
",. c #FA813C",
"<. c #F48C3A",
"1. c #F7B546",
"2. c #F77C35",
"3. c #F3CC70",
"4. c #E05E37",
"5. c #F1913F",
"6. c #F49E3B",
"7. c #F8BA4D",
"8. c #E86C41",
"9. c #EA6336",
"0. c #F6CB64",
"q. c #F5C65F",
"w. c #F37334",
"e. c #E9753D",
"r. c #FBA038",
"t. c #FAC157",
/* pixels */
"                                                                                                                                ",
"                                                            - 4 4 4 ;                                                           ",
"                                                          . , H } 8 :                                                           ",
"                                                          . , J H G :                                                           ",
"                                                          . , J J J #                                                           ",
"                                                          < : % % 9 : = - = ;                                                   ",
"                                                            . 5 $ $ 0 g g g 0                                                   ",
"                                                                  < * J } J *                                                   ",
"                                                                  . * W } ^ *                                                   ",
"                                                                  . u _ _ _ u                                                   ",
"                                                                  . 2 *./ 2.e                                                   ",
"                                                                  . 2 I Y / e                                                   ",
"                                                                  . 2 I Y *.e                                                   ",
"                                                                  . 2 I Y *.2 ; ; ; $                                           ",
"                                                                  . 2 I *.*.d y y y 4                                           ",
"                                                                  . 2 *.Y I ) G J J >                                           ",
"                                                                  < e I Y I ) H J G >                                           ",
"                                  < $ 7 $ N                 . 5 5 $ e I *.I ) G H J >                                           ",
"                                  ; 9 % % 0 5             < c % % % t I I I ) G H J >                                           ",
"                                  & 1 ^ } f 7             . , G H G ) I Y I ) G W H >                                           ",
"                                  & 1 W G f 7             . , G G H ) I Y *.) G H J >                                           ",
"                                  & 6 ! } M 7             . , G G J ) I I I ) H J G 9                                           ",
"                                  $ = # # # 0 9 > 0 ;     . , J J G ) *.Y I ) G H } + 9 > > : .                                 ",
"                                    <     o + J J O @     . , W H H ) Y Y I ) H G J G J H J % 5                                 ",
"                                          r 6 J G O @     . , J } G ) Y 2.I ) G J } ^ H J J % $                                 ",
"                                          r 6 H G O @     . 9 J W W ) *.Y *.) ^ H J } J J H % $                                 ",
"                                          r 6 G G O @       & - # : f 9.9.9.e.<.<.<.e.G G H % $                                 ",
"                                          r 6 H G O @               * ^ J ! O.{ U { 5.J G ^ % $                                 ",
"                                          r 6 G H O @             . * 8 G H O.T U R 5.W H } % 5                                 ",
"                                          r + J H O @             . * W H H O.T U U 5.! H ! % 5                                 ",
"                                  $ = # # 4 1 J H O @             . * W G ! O.R U T 6.O.O.O.t c : : = 5                         ",
"                                  & O 8 8 8 G H H O @             . * ^ G H O.T T T %.{ R { 6.( 8 J y ;                         ",
"                                  & 1 J H J G G H O @             . * H G ! O.T U T %.T U R 6.( G } + o                         ",
"                                  & 1 W J J G G J O @             . * ( ! ! O.] ] T %. .U U 6.( G W + o                         ",
"                                  & 1 J G G J J } X 4 = = @ $     < u >.( ! O.] E T ' 6.r.r.<.( G G + o                         ",
"                                  & 1 J J G J G } G X X X b @     < u >.>.( O.] E -.+.2./ I w.G H H + o                         ",
"                                  & 1 J } G } J H G G J G X =     < * ( >.>.O.:.E :.6.2.*.2.w.G H H + o                         ",
"                                  & O H H ^ G J J } ! J H X =       0 } ( >.$.E #.#.[ $.$.,.w.G H G + o                         ",
"                          $ @ @ @ : d =.=.=._ _ _ _ ( G } J 4 @ @ = 2 e.=.8.5.E E ] [ <.<.$.O.J J G + o                         ",
"                          = b O 1 d [  . .[ ;./ Y / _ J G G X O O m D :.' ' | E E | '  .%. .+.( J G + o                         ",
"                          - X H G =. .U U  .;.Y I / _ J G G G ! } >.5.U ' '  .] E E :. .T U +.( H H + o                         ",
"                          - X G H =.-.R T  .;.Y I / _ ! ! ! ! ! G >.5.%.' ' ' %.] ] :.T T U +.( J J + o                         ",
"                          - X G ! =.[ -.-.[ <.;.;.,.=.4.4.4.4.4.4.=.5.%.' ' 1.7.1.1.| T T U +.( G G + o                         ",
"                          # X G ! _ I ;.;.$.[ -. .-.[ [ [ [ [ [ [ ' | ] | U 0.~ @.@.0.T T T +.( G G + o                         ",
"                          # X J ! _ / Y *.;.-.U %.T %.T ] E E #.] | E #.#.E 0.P P L ..T T R +.( J J + o                         ",
"                          # X J H _ / Y *.I -.T T  . .] E ] | ] E E :.:.] U q.~ P P ..T R { +.( G J + o                         ",
"                          # X G H _ / Y / I  .U U |  .] E %.%.| #.7.1.| | U q.~ P L ..R R R +.( G J + o                         ",
"                          # X H J _ / / *.$.3.@.X.X.1.] E :.q.X.X.@.@.X.@.@.@.P P L ..R R { +.( J J + o                         ",
"                          # X H ^ _ / Y 2.$.@.&.&.P 1.| E ] 3.o.P ` &.~ P L L L L K ..R U { +.( W G + o                         ",
"                          - X G ! _ / 2.2.$.X.` ` P 1.%.E #.X.&.` &.P ~ P P L L K K ..R U R +.( } } + o                         ",
"                          - X G ^ _ 2.,.,.$.X.&.&.~ 7.' U #.X.` &.L P P P L K K K K ..R U U 6.m O O M ;                         ",
"                          - X G ! =.[ -.[ [ 7.t.t.t...X.3...@.P ~ ~ P P L K K L L K ..T R U C @ & & ; N                         ",
"                          # X G ! 8.| ] ' ' ' ' ' ] @.` &.&.o.o.~ P L L L L K K K K ..R R T n a                                 ",
"                          - X } } 8.|  .' %.:.| %.| @.` ` &.o.~ P L L K K K K K &.K ..T U T n a                                 ",
"                          = O X X 8.:.| 1.1.E E ] | X.&.L ~ o.~ ~ L L K K K K L K &...U U { S a                                 ",
"                          7 - : : j h h h +.3...X...@.o.o.o.o.~ ~ P L P L L L K P L x A v v Z .                                 ",
"                                  w k ,.,.$.X.o.` ` o.o.~ ~ ~ P K K K K L K K K K K 3                                           ",
"                                . w k 2./ $.X.&.` &.o.~ P P ~ L K K K K L K K K &.P 3                                           ",
"                                  w k / / $.@.` ` P o.P L P P L L K K K K L L K K K 3                                           ",
"                                < 7 B j j p i i i i X.~ P P P L P P L L P L x z z V l                                           ",
"                                          w t / / ,.3.L P L L L L L K K L K s                                                   ",
"                                          w t / Y ,.3.K P P P K K K K K L K s                                                   ",
"                                          w t 2.*.$.3.K L L L K K K K K K Q s                                                   ",
"                                          7 B p p p F 3 q 3 3 3 3 3 q q q 3 l                                                   "
};
