/* XPM */
static char *b321363a8f9e4d20b85363599009bc97oXJOwkiZ5HoRKm6y[] = {
/* columns rows colors chars-per-pixel */
"64 64 116 2 ",
"   c None",
".  c #F36336",
"X  c #E86233",
"o  c #E75538",
"O  c #E85537",
"+  c #DF5236",
"@  c #E55338",
"#  c #FE8335",
"$  c #E35337",
"%  c #EC5636",
"&  c #FE6737",
"*  c #FE733B",
"=  c #FE8031",
"-  c #C94D38",
";  c #E5543C",
":  c #F55A3A",
">  c #EC593B",
",  c None",
"<  c #E25337",
"1  c #EF5635",
"2  c #E25137",
"3  c #E35337",
"4  c #FC7F32",
"5  c #FB8033",
"6  c #E65D3A",
"7  c #F77C30",
"8  c #ED5735",
"9  c #F97E35",
"0  c #F65637",
"q  c #F05933",
"w  c #EF603A",
"e  c #E25136",
"r  c #E2D37C",
"t  c #F69335",
"y  c #E7D87E",
"u  c #F37A34",
"i  c #E05235",
"p  c #E65C40",
"a  c #FE8534",
"s  c #F5B943",
"d  c #FA7F35",
"f  c #F8B542",
"g  c #E85E3A",
"h  c #F46136",
"j  c #E55436",
"k  c #E75238",
"l  c #F37F37",
"z  c #F88132",
"x  c #F9B451",
"c  c #F5E984",
"v  c #FB8231",
"b  c #FAD975",
"n  c #FCF68A",
"m  c #FDF288",
"M  c #EF5934",
"N  c #E5D67D",
"B  c #EDDC81",
"V  c #F4AC3F",
"C  c #F6E77F",
"Z  c #F8B73D",
"A  c #FEBA3D",
"S  c #DBA53B",
"D  c #F98535",
"F  c #F6B338",
"G  c #F48133",
"H  c #F4853B",
"J  c #FB8A3F",
"K  c #FA9C3B",
"L  c #F5883E",
"P  c #EF6D2F",
"I  c #F6E284",
"U  c #E05137",
"Y  c #FE7D34",
"T  c #DF5237",
"R  c #FCB23C",
"E  c #FD7E34",
"W  c #FEB23B",
"Q  c #FC7D34",
"!  c #FCB13B",
"~  c #FDB33C",
"^  c #F4E484",
"/  c #FD7C34",
"(  c #FB7B34",
")  c #F6E385",
"_  c #F5E183",
"`  c #E65D35",
"'  c #DC5137",
"]  c #DE5338",
"[  c #F7D46E",
"{  c #E0573A",
"}  c #FBA13B",
"|  c #FC9538",
" . c #E15336",
".. c #FCB743",
"X. c #F36F35",
"o. c #FC9638",
"O. c #FB7934",
"+. c #FB8135",
"@. c #FCA93A",
"#. c #E15B42",
"$. c #F5DB7A",
"%. c #EB6634",
"&. c #F57435",
"*. c #E96235",
"=. c #F4DD7D",
"-. c #F7D26C",
";. c #FA8F37",
":. c #F9843E",
">. c #ED6836",
",. c #EC6535",
"<. c #FAB647",
"1. c #F7C55B",
"2. c #F7C863",
"3. c #F5AC5A",
"4. c #F8B03F",
"5. c #FABF52",
/* pixels */
"                                                                : ; o o 1                                                       ",
"                                                                0 @ T  .O *                                                     ",
"                                                                . @ T  .O *                                                     ",
"                                                                X O e e 8                                                       ",
"                                                                * 0 6 - 0                                                       ",
"                                                                                                                                ",
"                                                                                                                                ",
"                                                                                                                                ",
"                                                                                                                                ",
"                                                                                                                                ",
"                                                                                                                                ",
"                                                        * % 1 1 q X                                                             ",
"                                                        X <  .T + 2                                                             ",
"                                                        X <  .T e 2                                                             ",
"                                                        : O , ' + 2                                                             ",
"                                                          2 % % M X                                                             ",
"                                                                                                                                ",
"                                                                                                                                ",
"                                                                * 0 2 2 0                                                       ",
"                                                                X O + + 8                                                       ",
"                                                                . i ' ' O *                                                     ",
"                                                                . @ { { o                                                       ",
"                                                        * 6 M M h g #.#.o                                                       ",
"                                                        : o p p p { { { o                                                       ",
"                                                        X < ] #.#.{ ' ' o                                                       ",
"                                                        X < ' ] #.{ ' ' o                                                       ",
"                                          t Z V V A     X < { { ] ' ' T o       = u u D t                                       ",
"                                          s f 4.4.F     X O #.{ ' ' '  .o       u Q Q 9 7                                       ",
"                                          A f <.<.F     : w #.] ' ' T ] o       u Q Q 9 7                                       ",
"                                          s x f <.Z & : . O ]  .] ] T T O . X & G d 4 5 =                                       ",
"                                          X s S S L w O O P X.X.X.{ U T e < O o h = 7 = .                                       ",
"                                          *       ; #.' ] X.Q Q O.{ U ] ' T T U 3                                               ",
"                                                  ; { ' T X.Q Q O.{ U T T T U , 1                                               ",
"                                  * # # # .       ; ' ' ] X.Q Q O.` { ` { T U , 1                                               ",
"                                  # J 5 l z X     ; U ' ' X.E Y / O.O.( X.T T  .1                                               ",
"                                * t l :.:.H .     ; T ' ] X.E Q Q Q E E X.T U , 3                                               ",
"                                  6 l :.:.H X     ; T U ] X.Q E Q / Q Q X.T U , q                                               ",
"                                  . G z z D q 3 3 w *.*.*.&.Q / E ;.;.;.+.*.*.*.w 3 3 q .                                       ",
"                                          2 e T ] %.Q Q E Q Q / +.@.R R } Q E Q %.,  .$ %                                       ",
"                                          > $ ] U >.Q Q / Q / Q +.@.! R } E Y E ,.T ] j %                                       ",
"                                          > $ T U >.E Q Q +./ Q +.@.R W } Q Q Q %.' T j %                                       ",
"                                          > $ T U %.Q ( / | } } } @.! ! } Q ( Q ,.' ' $ %                                       ",
"                                          > $ T U %.E Q E } ~ R R R R ! } E E E ,.U T $ %                                       ",
"                                          > $ U U %.E Q Q } R ~ R ~ R R } Q Y E %.U ] $ %                                       ",
"                                    & : & M $  . .>.+.+.+.} R ~ ! <.~ ..} +.E +.>. . .j h & : &                                 ",
"                                  . o k k g &.&.&.;.@.@.@.! ~ ! <.[ $.$.2.@.@.@.;.&.&.&.g < k 8 X                               ",
"                                  - i  .U ` Q Q / o.R ~ R ! ! W <.=.^ ^ [ ~ R R | Y E ( ` U ] @ .                               ",
"                                  - i U T ` ( E / o.W ~ ~ R R W ..=.^ ) [ ~ ~ W | Y E O.` U U @ .                               ",
"                                  - i U U ` ( E Q o.W ! ~ ~ ~ W ..$.I ) -.R R W | / E O.` U U @ .                               ",
"                                  - + T T ` ( E Q o.W R ~ R ~ W ..$.) ) -.R R W | / E ( ` U U @ .                               ",
"                                  - + U ] ` O.E Y o.W W ~ ~ W R ..$.) ) [ R ~ ~ | / Y O.` U T @ .                               ",
"                                  - + U T ` ( E / o.R ! R ! ! ! ..$.I ) [ R ~ R | / Q ( ` U  .@ .                               ",
"                                  - + U U ` ( / / | ! ! ! 5.1.1.2.=._ I -.R R ! | / Q 9 w ; 8 1 &                               ",
"                                  - + T U ` ( Q / o.R R ~ [ I ^ I ^ I ) [ R R ! | / Q 4 7                                       ",
"                                  - + U U ` O.Q Q o.R R ~ [ I I I I ) ) [ R R ! | / Q 4 =                                       ",
"                                  6 @ , ] ` ( Q / o.R W ~ [ ^ I _ _ I ) -.R R R | ( Q 4 =                                       ",
"                                  & % 3 3 8 9 Q ( | R ! ! -.^ _ _ _ _ _ $.-.-.-.} ( ( 4 =                                       ",
"                                          a d Q ( o.R R R [ ^ I _ I I I I I I ) 3.( Q 4 =                                       ",
"                                          a d Q ( o.! ! R [ _ _ ^ I I I _ I ^ ^ 3.Q Q 9 7                                       ",
"                                        * t v 5 5 K ....<.[ ^ _ I I I I _ ^ ^ ^ x 5 5 v a                                       ",
"                                          * # # # b $.$.$._ I I I I I I _ ^ I ^ b # # # &                                       ",
"                                                  C ) I I I I I I _ I I _ I I ^ m                                               ",
"                                                  C ^ I ^ ) ) ) ) ) ) ) _ I I ^ m                                               ",
"                                                * n c B y N r r r r N y y y B c n                                               "
};
