/* XPM */
static char *_74d1808c4be485dbec580cff5bf82ccyerCv6wTHUyalmDK[] = {
/* columns rows colors chars-per-pixel */
"64 64 106 2 ",
"   c None",
".  c #E35337",
"X  c #E65335",
"o  c #F05634",
"O  c #E95637",
"+  c #EB5538",
"@  c #E05136",
"#  c #E45436",
"$  c #F85A34",
"%  c #E25535",
"&  c #F35733",
"*  c #E55A28",
"=  c #EB5635",
"-  c #F87C37",
";  c #E65435",
":  c #E45336",
">  c #FC5F3F",
",  c #EA5B3E",
"<  c None",
"1  c #EE5837",
"2  c #FA853B",
"3  c #DE5136",
"4  c #E75438",
"5  c #E15236",
"6  c #EE5635",
"7  c #EF5933",
"8  c #FF8534",
"9  c #F15A3A",
"0  c #E15435",
"q  c #E35234",
"w  c #FD7F35",
"e  c #FA853D",
"r  c #F47B35",
"t  c #F77D35",
"y  c #FD863B",
"u  c #D95237",
"i  c #FF8B36",
"p  c #EA5E39",
"a  c #F47532",
"s  c #FB7D38",
"d  c #FE8335",
"f  c #FF8531",
"g  c #FF8636",
"h  c #FD8033",
"j  c #F6E384",
"k  c #DF5136",
"l  c #FE7D34",
"z  c #E25237",
"x  c #F4E183",
"c  c #F5E486",
"v  c #FBB23B",
"b  c #FDB23C",
"n  c #DE5237",
"m  c #FD7E33",
"M  c #E05039",
"N  c #FB7D33",
"B  c #FC7A34",
"V  c #FCB03B",
"C  c #E25036",
"Z  c #FC7C35",
"A  c #DE5337",
"S  c #F87B33",
"D  c #F4E484",
"F  c #E05237",
"G  c #FBB43C",
"H  c #E35837",
"J  c #F3DF81",
"K  c #E15538",
"L  c #F7E185",
"P  c #FB9E3A",
"I  c #FCAB3A",
"U  c #F77535",
"Y  c #FABE4E",
"T  c #FB8C37",
"R  c #FAA73D",
"E  c #FB8237",
"W  c #F97F38",
"Q  c #E45D37",
"!  c #FA9938",
"~  c #FD8536",
"^  c #FB843F",
"/  c #F7CA61",
"(  c #E76037",
")  c #F37037",
"_  c #E35C43",
"`  c #F7903A",
"'  c #F7CD67",
"]  c #FBB641",
"[  c #EE6A37",
"{  c #F5D876",
"}  c #F6DB7C",
"|  c #E8673A",
" . c #FB9437",
".. c #F5CF71",
"X. c #F08A3A",
"o. c #F99647",
"O. c #F6AE3E",
"+. c #E9723A",
"@. c #FBA138",
"#. c #F69E4A",
"$. c #F7C45B",
"%. c #F6B766",
"&. c #F5B45F",
"*. c #F4E280",
"=. c #F7C16B",
"-. c #FAB84A",
/* pixels */
"                                                                                                                                ",
"                                                                                                                                ",
"                                                                                                                                ",
"                                                                                                                                ",
"                                                                                                                                ",
"                                                                                                                                ",
"                                * O + & O                                                                                       ",
"                                O q 4 4 6 O                                                                                     ",
"                                + 3 k n 4 &                                                                                     ",
"                                + 3 A k 4 &                                                                                     ",
"                                & . u u . & $ $ $ $ $ $ $ *                                                                     ",
"                                > @ 0 0 7 = . . . . . . = &                                                                     ",
"                                        @ 3 A A n M z k 5 @                                                                     ",
"                                      * @ 3 M k k n n n 5 @                                                                     ",
"                                        + . 5 5 5 < K K 5 0 O O O O O O $ *                                                     ",
"                                        * & @ @ 7 a U U ) 4 . . . . . . = @                                                     ",
"                                                8 h N N B H n A n k F F # 7                                                     ",
"                                                8 w Z W S H F k C M A A # 7                                                     ",
"                                                8 w Z m S Q K K K K k F # ; $ $ >                                               ",
"                                                8 w Z Z N  .P P ! ( M F n . q = 6 +                                             ",
"                                                8 w N l m I b b O.| k F n M n M # 0                                             ",
"                                                8 w N l m I b G I | k C A C A F # 0                                             ",
"                                                8 s Z B W R V V I | M F A n M M # 7   * *                                       ",
"                                                8 . Q Q ( E ~ T ~ U ) ) ) H n M A . = = : +                                     ",
"                                                O . k n K U l N l Z m m N Q k k k A F n # 7                                     ",
"                                                O . k n K U l N l N m Z B ( M A M n k n # 7                                     ",
"                                          > > > O . k k K U m m l W m m Z ( F F F M n n # ; > > > *                             ",
"                                        $ 1 6 6 = 5 M n K U N N W &.=.=.=.X.) ) ) Q k k C . = = 6 0                             ",
"                                        + 4 n F C n F n K U l Z E ..D c L o.N m m ( k n A n z C K %                             ",
"                                        + 4 k k M n F F K U m l E ..D x x o.N Z Z ( k F F k n n < %                             ",
"                                        + 4 M k n A F A K U m Z E ..j L J o.Z l l ( n z A k C F < %                             ",
"                                $ 9 1 1 6 # M A K [ ) ) ) ! @.@.P #.#.#.#.^ N Z N X.` ` ` | k M < %                             ",
"                                & X F M z A A M K U m l W R G G v ~ B S S B N N W R G G v +.n F < %                             ",
"                                & X C A n M n A H U N N E R b v V ~ Z N N N W l m @.v b b +.k k < %                             ",
"                                & X A k z n C n K U W N m R b v V ~ Z N N N Z l m @.v v V +.M F < %                             ",
"                        $ 9 : : 6 # M A H X.` ` X.W N Z ~ $...' ' R P P P P P P P  .` ` ` | F A A . : : 1 @                     ",
"                        + X F F M F C M Q R b G V ~ m m ^ ..j D *.Y b b b b v v v T B N B ( M F k M F M A ;                     ",
"                        o X k F n n k n Q R v v V E N l E ..x j J -.V v b v v v V T S N S ( k k n n F F A ,                     ",
"                        o X k n M n F n Q R G b O.~ N Z ~ ..j x J -.V v V v b v v T Z N N ( M M k k M n F ;                     ",
"                        o X n n K [ [ [ ) T ` T  .! P P P { L x J ..' ' ' -.V V V T B N N X.X.X.X.| n n n ;                     ",
"                        o X n n H B m Z N Z S N N R b b ] { D x j *.L L *.Y V b b T Z N l @.G G G +.k k k ;                     ",
"                        o X n k H B N N m N Z N E O.v v ] { x j x x x x J Y b v V T Z N m @.v v G +.M F k ;                     ",
"                        o X n F H B N Z B N N Z E R b V G { D D *.x *.L x Y V V V T Z Z Z P G G G +.k n n ;                     ",
"                        o X n k H B N Z W  .! ! P $./ ' ' } x J x J x x J ' / / / R ! ! !  . . . .| M n k ;                     ",
"                        o X n k H B m Z E I v b ] } D L L x x j j x j j *.D D x L Y b V v T S Z S ( M k A ,                     ",
"                        o X n k H B m N E I b b ] } D D x x D j x x j j D x L x L Y V v v T N Z B ( n A _ ,                     ",
"                        o X k k H B m Z E I b b ] } j L x x D x x x j D j D *.*.x Y V V V T N Z Z ( k K _ ,                     ",
"                        o X k k H B m l ~ I b b b $./ / / } x j x x j j j j j x x Y V v v T Z S S ( n H _ ,                     ",
"                        o X k k H B l l ~ I b b v V V v b { D L x *.j j j j j x x Y V v V T Z S S ( k K _ ,                     ",
"                        o X k k H B m l ~ I b v V V b v ] { D L x x j j j j j x x Y V v v T S S W | K A _ ,                     ",
"                        o X n C H B m m ~ I b G V V v v G { D j x x j j j x j x x Y V -.-.` W ^ ^ [ _ _ < ,                     ",
"                        o X n C K [ [ [ ) R b V b $./ / / } j x x x j j j x j x J O. .! P W +.) [ p 9 9 % &                     ",
"                        o X k C M F M M Q R G v ] } j L D x L j x x j j j x x x J o.S S W | _ H M %     * *                     ",
"                        o X k M n C F F Q R v b ] } *.j L x *.j L x j j j x J x J #.S B S ( _ _ H %                             ",
"                        + 4 z F z F M M Q R G v ] } c D j x c D j x x x *.x x x J o.S W S ( K _ _ %                             ",
"                        $ 9 : : q u k n H ` ! ! P $.' / ' } x J J J J J J ../ / / o.E ^ e - 1 1 1 o                             ",
"                            *   @ 3 k n H U N Z m I b v G { D x x J J J J -.I O.I ` ^ E e y   * * *                             ",
"                                + 3 k F H S W N E I V v ] { D j x J J x L -.O.O.v o.W S t y                                     ",
"                                + X z n H S m N E I V v ] { c j x x x c c Y O.O.v o.W S t y                                     ",
"                                O 9 : : q | [ [ )  .! ! P &.%.%.%.&.&.%.=.R P ! #.2 r r r i                                     ",
"                                        @ 3 F F K U l Z Z Z Z N S S B S W ^ ^ W t d                                             ",
"                                        @ 3 n F H U N m B N l Z N S S N ^ ^ ^ ^ e f                                             ",
"                                        @ X A n H U N N N N Z N S S S E ^ W W ^ e g                                             ",
"                                        O 1 = q p - 2 2 - - - - - - 2 2 2 2 - - 2 i                                             "
};
