/* XPM */
static char *_5d24b1b0264472cc2ed315b42512343gXZffORtWNHWtx5N[] = {
/* columns rows colors chars-per-pixel */
"64 64 12 1 ",
"  c #0F1111",
". c #232727",
"X c #141616",
"o c #1E2122",
"O c #191C1C",
"+ c #292D2D",
"@ c #2E3434",
"# c #353C3D",
"$ c #090A0A",
"% c #3E4848",
"& c #485757",
"* c #556869",
/* pixels */
"+++@@@@.@@##@O  Ooo.++@@@@@#+XX#@..X.@oO+@@###%##@+@+XO++.oooo@o",
".++@##@@#@@@. X#+OoOo++@@@@#.O.#&.Oo@+o+@@####%o.O+++.o+@..O+XO+",
".+.####&%#@+oOo+%# %&##%#+@@...o..+.oo.@@@##@#.X $@@+#+ooo+Xo@ @",
"+..@@+@%&%#@++%%#&O#&@#%#@#@@.XO+#@Oo+++###@@#$O$ $@@@#+  ..$+#+",
"+o+#XX.#%##@+.@&..#+######@@O+@O oXO.+@###.o#oX.oO$O#o#@oXX+O #X",
"@Xo%Xo+#&&%#@o.+oX$#&@#%%%++oO@@.X .+@###+o#.$XO.@X+%+%@+oXO..@O",
"@ X@.XO@&&%#+o++@O$O.@%&%@.%@%.@+$.###%#@+@@$ O$O@.&.#%@+.o X#%.",
"+$ .o o%&%##....+oo+%**#%@.%*&..Xo#%##%#@#%.XO.X.OX#O#@+@.oo+##O",
"O$$o.O+@%&%#@.o.O.%&**%#%+.%&&#.o+&%%%%@#%#+oX@%#XX#o@%@%@O+.@oX",
"  $O#oX.%%&%%#+ o%&&*&@##.+%**%O.%&%%&#+&#@o X.%#oo#Oo.o+#@Oo#O.",
"X $O@+o++#&*&%o %&&*&.@#%.@#&&@o.*&&%%@+%.@O Oo%+@.+.+. XXo.%%o.",
"oX$$o%+oo+%&&@..%%%%.o.#%.@@##@X#*&&%@..#@#OXX+#X%#..++OXOo+%+X ",
".X$$X## Xo#&&&+. .@XX#%&#o+@.@%@&**&%.oX%#+OX..@X#@o.X o.Oo@#oOX",
"O $$ .%X o##&%@$ O$ O@#@@X.+X@&.Xo&&#oXo#..O+++.@#Xo. $ .@.&&oOO",
"XX$$$O+#Xoo@&%O oO$ O@+o.XoOo#+  @@+#OO@@.#@@X#X%#XXoX OXo#*@ XX",
"oO$$$$o&+XO.@#.+XO XO++.O Xo%%#&*@O @O.++%*%#+..&.XOOX oO@#@X  X",
"$$$$$$X%% O.@..oX+ OOo.@X O%@..&*#o O.#@%**#+@O&%.XoOOX.#@%#OO  ",
"$ $$$$$@&XO.Oo#+O@OOoX+#O$@@$ @%%%@XOo.#**%@X@@&#+X.oooO.X%+   $",
"$$$$$$$o+.oXXo%%+#+oOX#@OX@$$+@X$O.#OXo#&##@X#%&@+XoXX+o$@&o $$ ",
"$$$$$$$ +%XX.#@%#@#Xoo.#X.O$o.$$$$ @ Xo+@@%#O%&&+.XXX X@O&%O  o@",
"$$$$$$$$o%OO#&#++o@.@XX#O.  O$$$$$ XXXOoo@&@o%%#.oX XX o%*+OOOO ",
"$$$$$$$$X++.%&#o..o#.$O+Oo$X $$$$$$   X O#&.+@#.+oO$   X&*oX$$  ",
"  $$$$$$ +@@%%@o.XX@XXoooo O $$$ $    X O%%.@+.o#+XX  $+&#X  XOo",
"OXX$$$ $ +####..o o@Xo.OoO X$$ $  X X  $.@@.@oOO.oX XXX%%+X  XX ",
"OOO$$ XO .%@@+.oO X@O.+XOO X$$    X X   @+.oOoO.&+  $ X@@o    o.",
"ooo$  OO .#...+oO O@X@@ OO  $      XOX X&@oo .O%*@X    OO O  X .",
".oO$ Xo  ++Oo.+.O @#.@O ooXX X  X Xo.o O&+o+O@.&%#@+X   XOO$ XOX",
".oX  oo X+OXX... O.%@XX ooXO XXXO o.+.$.*+o@oo+&#.%%XOX Oo    oo",
".O  Xoo O+X X+XXXX+%Oo. o.XoXOOXo o.@o .&.o#oXo@.o+OXoOX  $XX O+",
"o   $XoXo. $O+O O %@X+.$o.XoOo.Oo ..#oXo%oO@..#oXoX$X.oXO  XOXO.",
"O  $ XoXOo $+o$X $@.o.X O.O.oo+oo oo#OXO#oO.X@%@XO $O.oOXX XOOo+",
"oO$XO oOXXoo.X X  @+.X$XX.O.o.+O+XOO@OOXooX+ +@.OX  O.XOOX  X o@",
"X  XXXOX    O X  .#o $ o +.+o..XOXoX+OoOo.O+o.@oXXXXXXoOoXX   o#",
"XXX$XOOX$  XXXXX.#+   O.$+@#.@+ O OXoO.o...+.O+OXXXOOXooOO  XX.%",
"Oo$$ XXX$$$X Xoo##O  $oO o+#+#%Xoo O+..&+o@&@ oOX .#ooO.XOO   .&",
"oO $ XXX$$ X X..#oX $XXX O+#%*&@o.oX.oo*&X@#oXOOX .&%..oOOXX  o%",
"o.  OOXX$$X  Xoo+ $ OXXXXO.#***%o OoOXO@%.+ OXOXXXo&&%+...   $o#",
"..oooXX      Oo.X OO $OX$ o#&&&#oX o+OO. oo$oXOXX O%%&%+.oXX  o+",
"+. X. XXXXOX +@O oO $ oO$ o@####O Xo+oO.X$.X#OOX   +%%&#oXo.Xo+O",
"o $o.X$  XO$X#@OoOO   +o$Xo+@@#@XOX.@O X@@@%&oOO   X@#%%+Xo@...o",
"$  .+X o $ $o%.oo.OXOO+O$O..#+@. O++#+ X.&@+...O  X O@@@+oO.@.Oo",
"$ O+@ Xo $$ @+++#+O+oX+o OOo#..o   +&&.XoOo#o++OX$XXXo.o.Oo@+.oX",
" o.+#  X $ o.+.@+O+X$X%o$ oo@ooO $$$@*&O.O.&%@@X $$oXOOOOOO@@#.O",
"O+@o+ X $ oO+O OO.O o.+OX .XoXOX  $  #*+o##*&%#O   X.XoOO.X.%@+o",
"o.@ooXX  XXXoO Xo#o.oo#o  OXO XX $$ oo&%X&&**&&O XoX.#O.@ooO@#.o",
".o#oOXXXX XoOOOX%@o  @%o$ XoX  X   X o#&O#****&o X..X##oO..oO@%@",
"oO#oXooO X.o O .. $ X&.  XXo X     .OO+%+.&***&oX o@@o@++oX++o%&",
"oX#.X+.Xo.X   Xo  %@%&XXXo. $$$$ XOo@o.+@O#&&%#+Xoo###+.o.XX++#%",
".O+@..O..X    O X+*@%@ XO#+$$$$$XXoX##o+.Xo%@+.@Oo@#+@#oOOO X++.",
"o..@+o.o  XXOO Xo++ X  XOOO $ $$XoO.#&.@oO @.oo.Oo@@.XX.oOoO X+o",
"o++@+.oXOoo@.  oOX   $ OOOo  X$  +o.o%#@.O @+oOXoX+#+oo##.@@+XO+",
"O.++.ooo.++#X OoO  XO OOOOo X.$ $o#+ +%#@oo.o.OooX.+..o@#.o@%%O+",
"X.++.o..++#o$XooO Xoo XOOO. O# XXX*%$O%%@+.Oo.OOXOOOoo O.O.+#&++",
"X.+oo...+@@$ o..OXO+O  XOo@ o&X.+X%%$ @%##.Xo#+X .OX.oXo.+o@%&+@",
"OoXX...++.  O..oXoo#OXOOo+#X+&o+#O@%O$o&#%+XXX+. .OXO+ .@##@*%@#",
".X O.o++.oXO...O.O+%O XXo@%X@&++@+#@# O&@%@.X$ +XXoXO@.O&@**%.+o",
"oXXo..+.oooo..oo+X%%oXXOo%%O@#+#o&*+#%+&@%@@+X$.. oo.o#X%**%X.##",
"X O........+..O+oo&%+oOo+&#o@@@%+#&+O@*&+#.#@. O+OX.+.@o.&...O..",
"$ O........+.oOoo.&%@.Oo##OO@@@%#@@. $%&o+.%+@OO@+..++++ +oX+@+.",
" X.+.o++@++..oXO+@*%#+o.@oXO#@#%@@@+  o#oo+%.%%@@@%#+.o+.o..O.+@",
"o.+oO.++@+...oO.o@*%@@.o@&.X@@+@@++@  X+oO@#o%*&@%%@&#O%&#o..Oo.",
"++.oo.+++++...o+o@*&#+.O%&oX++.@#.o.o  ooO##O%&**%&.#&#%&&@.@+o+",
"++X.oO++@@++++.++.#%%@oO%%oX.+.o@@OO.OXoo.%+.##%*&&##+#%####%+..",
"+@.oO Ooo@@@+@.@@oX.#+O.%%.Xo+oo+@oOooo.o@%+@+#@%&&%&@@%#++#%+oo"
};
