/* XPM */
static char *_c7d55f290514a77ab24a9b68db79043j2lEU3RMaQmBpiaN[] = {
/* columns rows colors chars-per-pixel */
"64 64 190 2 ",
"   c #1A0D01",
".  c #1E1205",
"X  c #16130A",
"o  c #1A150C",
"O  c #1C180F",
"+  c #1D1A13",
"@  c #220F0B",
"#  c #221506",
"$  c #25130E",
"%  c #29150E",
"&  c #26190A",
"*  c #2A1C0D",
"=  c #261411",
"-  c #2A1612",
";  c #231D14",
":  c #2C1A15",
">  c #221F1A",
",  c #2D1B19",
"<  c #321517",
"1  c #311B16",
"2  c #341E1A",
"3  c #3A1E1C",
"4  c #2D2115",
"5  c #25221A",
"6  c #2C251C",
"7  c #2B291F",
"8  c #322415",
"9  c #3D2217",
"0  c #32251D",
"q  c #3C241B",
"w  c #32281E",
"e  c #3C2A1D",
"r  c #2B2720",
"t  c #272820",
"y  c #2D2A22",
"u  c #2E2D28",
"i  c #322620",
"p  c #3C2521",
"a  c #342B23",
"s  c #392D25",
"d  c #332F28",
"f  c #3B2F28",
"g  c #333127",
"h  c #3A3027",
"j  c #35322A",
"k  c #3C332A",
"l  c #35392D",
"z  c #3A392D",
"x  c #3A3730",
"c  c #3C3D31",
"v  c #41251B",
"b  c #43291E",
"n  c #402522",
"m  c #452C21",
"M  c #433526",
"N  c #42352C",
"B  c #44392D",
"V  c #4A3B2D",
"C  c #423630",
"Z  c #453B33",
"A  c #4A3D33",
"S  c #493F39",
"D  c #3B4536",
"F  c #3A4837",
"G  c #3A4638",
"H  c #3C4A3A",
"J  c #4D402F",
"K  c #474036",
"L  c #4C4136",
"P  c #414739",
"I  c #4D433A",
"U  c #424D3D",
"Y  c #4E483E",
"T  c #514336",
"R  c #52463C",
"E  c #54493E",
"W  c #5A4C3E",
"Q  c #59503F",
"!  c #454E41",
"~  c #4E4A42",
"^  c #514640",
"/  c #554B42",
"(  c #594E43",
")  c #465444",
"_  c #4A5545",
"`  c #4A5847",
"'  c #4C5648",
"]  c #4D5848",
"[  c #575046",
"{  c #5B5147",
"}  c #5A5046",
"|  c #5A5247",
" . c #595144",
".. c #5D5145",
"X. c #5D5047",
"o. c #5D5347",
"O. c #5E5246",
"+. c #5F5345",
"@. c #5F5647",
"#. c #5C5145",
"$. c #55524A",
"%. c #5B5148",
"&. c #5B5348",
"*. c #5C5248",
"=. c #5D5349",
"-. c #5F5249",
";. c #5D534A",
":. c #5C5449",
">. c #5F5549",
",. c #5D554A",
"<. c #5E544A",
"1. c #5F554B",
"2. c #5E544B",
"3. c #5E564B",
"4. c #5F554C",
"5. c #5F564D",
"6. c #5D534A",
"7. c #50584B",
"8. c #5C584F",
"9. c #5E5B54",
"0. c #625445",
"q. c #60534A",
"w. c #605448",
"e. c #61544B",
"r. c #63574B",
"t. c #60564C",
"y. c #61574D",
"u. c #60564D",
"i. c #61574E",
"p. c #62564B",
"a. c #60584B",
"s. c #60584D",
"d. c #63594D",
"f. c #62584E",
"g. c #63594F",
"h. c #62584F",
"j. c #625A4F",
"k. c #675B4F",
"l. c #675E4F",
"z. c #63594D",
"x. c #685C4E",
"c. c #6A5B4D",
"v. c #635950",
"b. c #635B50",
"n. c #655B51",
"m. c #655B52",
"M. c #645C51",
"N. c #665C52",
"B. c #675D53",
"V. c #665E53",
"C. c #675D54",
"Z. c #675F54",
"A. c #655C52",
"S. c #685E54",
"D. c #695F55",
"F. c #695F56",
"G. c #6C5E51",
"H. c #4F604E",
"J. c #52614F",
"K. c #566352",
"L. c #6A6054",
"P. c #6A6057",
"I. c #6A6054",
"U. c #65605A",
"Y. c #6B6158",
"T. c #6B6259",
"R. c #6C6258",
"E. c #6F675A",
"W. c #6F665D",
"Q. c #6D655B",
"!. c #726354",
"~. c #706758",
"^. c #726658",
"/. c #71675B",
"(. c #736A5B",
"). c #70685D",
"_. c #72685C",
"`. c #71695E",
"'. c #72685E",
"]. c #746A5E",
"[. c #75695D",
"{. c #6F6961",
"}. c #736A61",
"|. c #746C61",
" X c #706961",
".X c #7B6F63",
"XX c #796F65",
"oX c #77736A",
"OX c #7A756C",
"+X c #7C7771",
/* pixels */
"x.^.[..X[._.^.E _.S.S.Y.}.W.Y.d.( l.(.E.E.E.|.Z.E _.).Z.d.XXP.W 0 q b b 9 v v v v v v v v v b e s g g d d d d d r y d j j j g d ",
"+.x.+.( d.>.( +.>.{ y.4.4.%.4.>.+.W  .@.a.{ v.N.:.{ >.E ( *.d.( q q b v v v v v v v 9 v b b b q 6 r r r r y r 6 y y y y r y y y ",
"E +.E E >.( I S.( E ( E ^ R ( ( E E E E E E %.%.M.E ( E ( R { R q q v v v b v v v v v v v v q q i y y r y u y y 6 r r y y y r 6 ",
"E ( w.w.>.( *.S.{ ( { E E Y ( ( I ( +.E E W d.{ >.( ( ( R / E A q q v q v v v v 9 9 v v v q q q i y r r r y y y 6 r y d d u 6 5 ",
"( { { >.{ *.S.y.( *.d.( R I ( *.E E ( ( ( ( n.N.y.N.*.( E q.( E 9 v v 9 v v v v b v 9 v b b b q 6 r 6 6 r r r r d y y y y r 6 6 ",
"( y.R / y.N.R.y.( { >.^ R I ( ( E I R ( >.+.S.P.d.N.*.E / / E W 9 b v 9 v v 9 v m v v v b b b e i y y r y y y y d y r r r r r y ",
"{ y.E / S.P.N.y.>.{ { R E / ( R I R E ( w.w.P.N.P.N.n.+.( / ( W q b b v v v 9 v v v b b q 9 q s i y y r r y r r r r r y y y y u ",
"d.*.( { d.d.{ { d.4.y.( / ( *.( R R ( +.+.( S.R.P.d.d.*./ ( +.R q m b v v v 9 v v 9 v b b q q q i y y r r r r 6 y r r y y r r u ",
"%.*.( { P.{ { y.n.y.*.( R R / ( R R ( +.*.( v.n.S.y.d.>.( w.I T q v v v v 9 v v v b m b q q e e i d u g d y u y y d g d j y g y ",
"^ v.^ >.S.*.>.( { { ( E I I / ( R R / ( >.{ n.Z.N.y.*.n.*.( w.A q v 9 v v v v b 9 q m b m q b q i y r y y r y y r y y r u 6 y r ",
"( y.I ( { { *.( ( ( { E I Y ( ( R I R / ( / *.>.4.*.( *.+./ k.V q v 9 v v 9 v v v 9 b 9 b q b q i y 6 r 6 6 y u y r 6 r y 6 y r ",
"L L I E ( { R ( R ( ( I Z I / ( / R R ( %.^ { %.( ( / L E ( ( A q b 9 v v v v v b v b 9 q q b e i y r r r 6 y u u y 6 y y r y y ",
"E E { ( { ( R ^ Y / / I Z I / ( I A Y / ( I ^ ^ ( ( ( L A { E T q v 9 v b v v b v v v b v b v q 6 r 6 y y r y y y r 5 y y r y y ",
"Y d.{ I E L E Z I R Y Z N Z I I I I E / ^ L Y Y Y Y I I k I E M q v 9 v b v v b v v 9 b 9 m v q 4 r r y u y y y r r 5 y y y y r ",
"N >.^ E ( R ( Z Y R ^ I A I R I R R ( ( ^ I R I ^ / E ^ A R { M q v v b b q v v b v 9 v 9 b b e 6 y r u u y y y y y 6 y r y y r ",
"h I B B Z Z k k k k C N N Z A Z k N C N B k C k Z L Z k Z Z Z s q e e m m q e e b e b b q b b q i y y y y 6 y 7 y d 6 y 6 y y r ",
"N *.( E >.( I E E { ( I Z ( *.R I / >.>.4./ ( %.*.( *./ / { N.k 6 h k N B h s h N s s s B N s Z f i k h j h z s s k k s s j d 6 ",
"B / I L ( E L I I E ( I Z R ( / R E E R / I Y I Y ( ( I B I / k y g s k k k h k k k k k k k f A f a k h k h k k k k s s k j f y ",
"I / L A E I A L I L I I C Z I R R R I I R A I Y Y ( E Z k Z S B y d g k k s k k s k k h k s s C f a s s s s k k k s s s k j d y ",
"/ / I I / I I I ( I I L Z Z I Y I R R E ( I ^ ( %.( I I I B R Z 6 d k k k s k k s k k a s s s N f a s s s s k k s s s s k j a 6 ",
"I R I R ( R / / *./ R I Z Z Y R E R I R ( E ( ( *.( L ^ I B / B 7 d k k k h k k a k B s i a s Z f a s s h s k k h h s s k j d r ",
"I E / E *.( *.*.*.( ( R Z Z I I R R R R ( ^ %.4.{ >.I { Z Z E k a d i j k k k h w s k i i s p k s i s s k h N B k k s i s j d y ",
"R ( ( I { ( >.>.d.>.>.( L A Y R I / ( ( { / 4.Z.4.v.( ( S R I N y g i d k k s a w i w 6 a h p s p w s s h s k k N k s i a d d u ",
"I ( E B E R %.*.n.{ ( E I I E E I / ( ( *.( >.4.Z.y.%.E / / A Z 6 j s s h a w w i s a 6 i s f N p i s s s i k k N s a a s d y u ",
"R R L / E ( ( E >.%.( ^ I I R ( R R ( *.%.%.4.d.N.N.d.R h.I / Z 7 j s s s s i 6 i i i 6 6 w a N p w s h s 6 s h h a s i k d d y ",
"( ( L E y.{ { ( *.y.v.*./ E E E / ^ / ( ( ( *.d.>.n.y.*.( E / I y j d d h s i 6 w i i 6 6 w a k a 6 i s s w s h h s s a k g f u ",
"/ { I ^ Y.y.*.( *.d.N.>./ / / E I I E ( ( ^ ( ( y.d.4.4.( ( R Z y d y i h s i 6 6 i a 6 6 w a k s 6 i s s i s s s a s i s d d u ",
"I / R R d.d.*.( %.*.>.( R / ( / I R ( %.>.{ ( ( y.%.d.( ( / R k i u 6 i k s w 6 6 i s 6 6 i p k f w a s s i s i s a s w i y d u ",
"/ E R L Y n.>.{ { ( ( ( E ( { ( Y E E ^ ( ^ R / *.( v.^ / R E Z y d i s k s w w 6 i s 6 6 w a f a 0 a s s 6 i i s s s 6 i 6 y y ",
"/ E I L I N.*.E ( I I I A I / R ^ ( ( ( ( ^ R ( %.%.( I I R R Z 6 d i d s a w 6 w i s 6 6 6 w p a w s s s 6 i w a a s 6 6 6 y r ",
"( >.( { n.P.d./ d.( ( E I ( *.( ^ { >.>.v.%./ %.y.N.( ( / ( / A 6 d y y a i w 6 w w i 6 6 6 w p a w s s i 4 7 6 a a a 6 6 6 y r ",
"N ^ Z I *.Y ^ Z R I Y I C I R C k K I I ^ I Z I Z ^ I S A Z C s y d y 6 i i w 6 6 6 6 6 6 w i f a 6 w w w 4 w w s s s w i i d u ",
"s j f s f s s k f s f z k j k k f j j j d j d j d d j z z j j d y d r y a 6 6 4 6 w a 4 , 6 a k i 6 i s s w i i i a i a d 6 d r ",
"6 y 6 y i r 6 r i r y a y y i a 6 6 r y r y y r u y r r r y y r y y 5 6 i 6 6 6 6 w a 6 4 6 i s s 6 i w i 6 6 w 6 s s 6 4 4 j y ",
">.l.N.L.P.N.v.Z.Z.v.Z.v.d.d.d.P.P.d.d.>.>.d.E.E.M.d.d.d.d.N.v.%.d d 6 r s y 6 w i w s w 6 6 i f s 6 6 i a 6 w i i k s 6 5 5 j a ",
"W #.a.a.@. .{ a.{  .>.( E ( W d.+.E w.{ ( E k.w.E ( ( ( ( +.( I d y 5 r i 6 4 6 s w i 6 5 6 i k i 6 6 s s w a s h s w w i 4 d y ",
"W  . .+.#.Q W #.E W @.E I E E >.W I ( ( ( E r.+.( ( W E E W W I i y 6 i s i 6 w s w w 6 4 6 6 f s 6 w i s w a s h w 4 i d 4 y r ",
"( W E W @.@. . .I E ( I I R I { ( L R E +.W r.r.+.#.( E R E ( R d f i d k s s s s a a w 6 6 6 s s i i i a w s s s s w 6 y 5 d y ",
"+.( E E +.+.( E R / E I R E / %.E I / ( >.( *.+.>.( / E / ( ( I s j 6 6 6 w w i s a s w 6 6 i s s i s a a w s s s h s 6 6 4 j a ",
"w.*./ / / R I S R / R I E / ( *./ Y ^ E ^ I ( >.>.^ I I E ( ( R i f 6 > 4 6 w i s i i 6 4 6 i f i i k s s w a i s s i 6 6 6 j a ",
"q.0.( +.( / / E / / / R R E ( y.( L { *.( I +.*.( ( *.( / w.*.Z d s 6 4 w 6 6 ; w 6 w 6 4 6 w k s r s s s i a s s h s w s y d a ",
"L ( T Z R R A B A A Z B V V Z E I A A I E A B R R R A A R R A N s j 6 6 a w 6 6 i a k s a i w s k 6 i w a w i s s s s w s i d d ",
"M 8 # w V 8 & 8 M 8 & 8 M w # 8 M 8 & 8 M e & 8 M w # 4 V e # 4 s j i s k h a w s s k k a a i h s 6 s s s a w w s h s i k s j d ",
"M 8 e W J * w W V * h W M * e W V 8 M W V * e W V * e W M * e R i s i a k k s a h s k s a s s k a 6 h k k s i w h h s i k s d a ",
"r.r.r.x.x.r.r.r.W r.c.E T 0.G.^.r.W c.c.r.0.!.r.0.r.c.0.W r.c.W i s 6 6 s k k s s s s s s h s k s i h s h a a s k k s i j i a r ",
"E c.#.R ( ( T A E E E I B A I ( #.T ( W W A R T #.E W T B T E B 6 s i i k k k s s a a w w s s s f i k s h s s h k k s s k i y r ",
"I / I I ( R A R A R I Z R A N / I I E Y I Z I I I / I Z I I Z I y d i f C N h s N s a 0 6 s s k f i k k k s s s k k s s k i a y ",
"R E R R R R R Z A A I A Z I R ( ^ Z I ^ I Z I K ^ ( / Y Y Y I C g d 6 d z g g h N N N f s k k N k a k k N s s s k g d i j y a y ",
"E I I I I I Z A I I I N k S ^ ( / Z Y ^ I L ^ L E L R Y Z I ( L 6 c _ ! ) _ z 6 a p p p p p f p p p p p p p p p r g j j d j j r ",
"Z E L k R R B I B E E Z Z S I ( I R E A E Z Z I A E E Z N A I Z 7 c ' ) ) _ z 4 0 : $ - - - - @ - - - : - : < 2 5 t + x u + r 6 ",
"E I R I E R R I E E R I S A I %.*.I / E +.S E E ( +./ I A I S Z y l ! H H ! z 6 a : - : : - $ @ @ @ = : : - < 2 d u + U.~ + d d ",
"B B B N B B N N A s N N a k Z A Z N B N I B A S A N B N s N B s 7 c ' ) ) ' c 6 0 : 1 - = = @ $ $ $ $ : 2 2 2 2 y r + +X9.+ y r ",
"* . 8 M *   : s :   8 M :   = h 4   4 N :   : h : . : h 4   & k 7 l U G F U z 6 0 2 0 - = - = - - = $ = - 2 3 2 y r + oX:.; d y ",
"I h * M W N 8 A W s 0 A R M 0 B T h 4 B E h 4 I ( s 0 A E s 4 B y D 7.' _ ' c 6 0 0 1 $ = - - - - - - - - 2 3 i y 7 + Q.Y ; y 6 ",
"r.L.0.W 0.0.0.( c.G.c.W ( +.( w.r.S.c.r.r.r.+.r.c.L.r.( #.W T I 6 l ! H H U j ; 0 p 1 - : : : : = - , , , , 3 i i y ; {.^ ; y y ",
"T E V M V V T R W T T A V L R W E R E W W T R W W E R T A T I B 7 c ' _ ) ' c 6 0 q : : : = - : , - - , : , 3 p i r ; }./ o 6 y ",
"E T A M E A V V T T I A L A I w.( R ( ( ( R R ( ( ( ( R R R I Z y c ! H U U g 6 0 0 : : : : - - : - : : - 1 3 p 6 g ; {.~ + a y ",
"( E E L ( R A M R W +.( W R I ( ( R ( E E R R E E ( E R R ( E L 7 c ' _ ) _ z 6 0 0 1 - - - - : - - : : : 2 3 2 6 r O OX8.O 6 y ",
"E E E R w.+./ I / +.q.W R E E { E I E E E I I I ( { ( E / { E B a c ! H F U z w 0 q 2 - $ - : : : - - - - 2 p 2 i g O oX$.+ g d ",
"R R R L ( ( / I E ( ( / R ^ / [ / I / { ( E I I / ( / E E ^ L k y c ] _ ) _ D 6 0 q q 1 : - - : : - - : : 3 p 0 y g X {.~ o d 7 ",
"( ( / Y [ *.2.( 2.( %.( ( [ ( :.( Y ( >.%.( Y ^ 4.%.( / ^ ^ Y I 7 l U H F U z 6 0 q 3 2 2 : : : - % : 2 q q 3 2 i r + +X9.+ y d ",
"Z Z Z C Z Y Y I I C C C C Z Z I I Z K Y I I Z I Y I K Z Z C B c 7 l _ ` _ _ c i 0 2 2 q q 2 1 2 1 : 1 q q 3 3 q 6 5 + U.$.+ r u ",
"j j j j d j j a f y j z k j j j j d g j d j d j a d j j j j j j 5 l U H H U j 6 0 q q q p q 3 q q 2 0 q q q q q 6 r 5 x j 5 u y ",
"6 6 r y 6 r y r y 5 y y 6 y y y 6 7 y y 5 d 6 5 6 y y 6 7 y y 6 5 P K.H.J.J.c 6 q p n p p p p p p q p p q p n q 5 7 5 > 5 5 r > "
};
