/* XPM */
static char *_dfd7510405a4deda31e655acb1802d4jw0MpD9hJs1QKwtP[] = {
/* columns rows colors chars-per-pixel */
"64 64 21 1 ",
"  c #282418",
". c #252117",
"X c #2C271B",
"o c #221E15",
"O c #4C3824",
"+ c #1F1B12",
"@ c #483522",
"# c #3E2E1E",
"$ c #46311F",
"% c #513B27",
"& c #1C160F",
"* c #37291A",
"= c #302316",
"- c #56402A",
"; c #130E08",
": c #6A130E",
"> c #37150F",
", c #4B0D09",
"< c #950303",
"1 c #69645D",
"2 c #918C86",
/* pixels */
"X.X.XoX .o+X +o .X.Xo  .o&  ++ .   .  ..& Xo+     ..X..+.Xo+. .X",
"X.X. oX..+&X ++X.X. oX .o&XX++X.   o  o.&.Xo&   X ..Xo.&oXo&. .X",
"XXXXX.X X.oX . XXXXX.X X oXX..XXXXX XX  oXX .XXXXX  X Xo X .XXXX",
".o.+.o.oo++ooo+.o.+.o.+.++ooo+oo.o.o.+.+o+.++oooo.o.o.+o+.+oooo.",
"#$*&$*###@;.$##*$#&#*###@+&$*#*$$&*#*##@=;$*#*#@+=#*##$*;$##*#$=",
"O%$&O*%%O%&=%@%O%O&@#O%O%o+-@%@%%+##$%O%*;-@%O%%o*$#%%O$;%@%OO%*",
"OO#&@$%O#-&=-@%OO$&$$%%#%o+-@%OO@&#@O%$%*;-OOOOO+*@@%$@$;%%O%O@*",
"@%$&O@%O#-&=%$O@%@&@OOO#%.+%$OOO%&#OOO$O*;%@@OO%o*OOO@@$;O@@OO%*",
"O-@&@@@@$%&=-@O@-%&$@O@@%.+-@@O%-+#@O@@O*&-@@O%-.*@O@@@$;%O@OO-#",
"$%O&@@OO@%&=-#$$@%&$@OO@%.o-$$$@-+#@@O@%*&-$#$$-==@@O@O$;%@#$$%#",
"O%@+O@O-@-&=%@O@%%&@@O-O-=+-@O@%%o#O@%O-*&-@O$O%=*O@%%%@;%@O@O%#",
"#$#X#**###o=#**#$# #**###..#***##X##*### o#*X*#$X*#*###Xo**X*#$*",
"o.  Xooo++.o++&o.  Xoooo+o.++&oo .X.ooo+o.++&oo .X.+oo+o.+o&oo. ",
".X XX.  .o...++.X XX.. ....oo+.X  X..X..o o.&.   X .X..o o &. X ",
"... Xo..o+o.o+&....Xo..o+o.o+&....X...o+o.oo&o...X.o .+o.oo&o.. ",
"   X .+++..++ .+ oXX.. .oo.oo+    X.. .oo.o.&.   X o ..o + &.   ",
".o.. o&&&..++ .+o+. o .oo...o+.... o...o...o+.... ....o..o.+o.o.",
"XXXXX o+.XX+oXXo  XX X  .. X. XXXXX XX  .   .XXXXXXXX  .X  .XXXX",
".o.o.oo+ooo++++oo o.o +o++.o++oo.o.o +o++o.+ooo...o.oo++o.+oooo.",
"*#*&#*##.#oo*=*=**;##**=#&&@##*##&*##*=#o;@#####&=$#*=*=;$###*#=",
"O%@&O$%%#%==@#O#$@;%-O%$%.o-OOOO%+$-%%$O*&-%OOO-=*-%%$@$;-%OOO%#",
"O@$&@$@-#@==O@O*$@;O%@O#Ooo-O@@@Oo$-@O$@*&-O@$@O=*-@O$@#;-O@$@@#",
"%O@&@$@-#O.=%O@*@@;%%$-#@oo-@OOO%+$-$-#$=&-@OOO%o*-$%$##;-OOOOO#",
"%O$&%$@-#-==%%$#@@;O$#-#@oo-@@OO%+#O#-#@=&-@@OO%o*%*%$$#;%@O@%O#",
"-@$&-$@-*-=.@##$O@;O$#O@Oo+%O=OOO+#@#O@@*&%O*$%O.*O#@O@#;OO##%@#",
"OOO&%$%-#%.=O$$#%O;@@$@$%o+-O$@@-+*O$@$O*;-O$$@-==%$@@@$;%%@$O%$",
"#@#o@#***$###$X*@$+####*@=.@###$@ *###*@*o@###$@X*##$*##+@$###@#",
"X.Xo .&;XO--@ . .   + .o++X ++X X  +..o++ X++     oo .o+ Xo&   X",
"X.XoX o&X%11XX.    Xo X.o&XXo+X.X  o.X..&XXo+X  X ..X..& X.+   X",
"XoXoXoo+o#21XX. . . + .o+&  ++ . . o  .o&.X+& .   .. .o&oX+&. .X",
"  X.X.o+o.XX        oXX..&XX+o  XX . X..& Xo&++..+oX + + X.+   X",
"XoX. oo+o+X#o.. o . o .o+&  +& . . o  oo&o o&&&oo++ .+oo Xo&o .X",
"XXXXXX ..;XX&=X XXXX.XX  +XX..XXXXX  X X+ X o+. X+oXXo .XX oXXXX",
" o . . + &;;+ o.o . o o +o .oo.... o o oo. .o+...+ooo.o . ooo.. ",
"=*=&#==**#&o**==*=;*====*&&*===**&=====*o;*=**o*+o*==.X=;*====*.",
"@%$&-O#%@-=*-%@@@@;O#@%O-o+%@%@%%+#$$%O%*;%$%%*%=*@#@#$$;%@O@O%#",
"OO#+-@#$$O==-@O$#$;@#O%$%o+-@%OO@&#$@%$O*;O#@%#$>=@$O*$#;%OO%OO*",
"@O#&-$#O$%==%$%@##;@@%%#%.&-@OOOO&#OO%$%*;%$$-#$o>%$$=O@;%O@%OO*",
"O-@&-$#O@%==O*%$#$;@@O@$%.+-@OO%-+#OO@@O*;O#$%::>>$O#:$$;%@@OO-*",
"$%O&%$=$OO==O*@@$$;$@@@@%.o-$$@O-+#@@@@%*;:::%::,,:O$::$;-@$@@-#",
"@O@&%@*$OO==%$@$$$;@@O%@-.+-$@$O%+#OO%@%#;:::O:<,,::$::$;%@@$@%#",
"@O$oO$###@==@$$###+@$#O@O..O#$$OO #$#O@OX>:::::<<<<:::::>@$#$@O#",
"o    o+&&o.&+ .+.. X.o.o+o.++&..X X o.o+o>:<,::<<<<::,>,,+o&o.  ",
".    .&&+..&+X.+.oXX.. oo..oo+.   X.. ooo>>:>,,:<::,,,>>>o.&..  ",
".  . o&&&oo&&X.+.o Xo..o+o.o+&.. .X...o+o>>,>>,,::,,,,&&=oo&o.  ",
".    .+o+o.+o.oo .XX.. .oo.oo+.   X..X.oo,>>>>>>,,>>>,,&X+.&.   ",
" ...Xo ..ooo.++ ...Xo...ooooo+....Xo...oo.=>o>>+>>+&>>,> o.&o...",
" X XX X  . . .  X XX X  ..  .. X XX  X...=* ,,> >,,>.=:>X. o    ",
" .X X. o +. .oo .X X. o oo .oo..  X. o oo = >,o =::,.>>=  oo. .X",
"===&===.o=;o*=====&===.o=&&*====X&.==.o=+&* => =o>::>==.;*=====.",
"O%@&%%OO#%&*-OOO%O&O-OO#%oo-OOOO%+$-OO#O*&-$:$@%**::$$@#;-%OOO%#",
"O@@+%%OO#%&*-O$@@O+@%OO#O.o-O@@@Oo#%OO$@*&-$,$$O*=$$$:##;-%@$@@#",
"OO$+-O@%#O&*-@@O@O&O%$%#@oo-@@OOO+$-$%$@*&-#*@$O*X%$O$##;-O@@OO#",
"%O@&%$@%*@&*-@O%OO&@@$-*@oo-@OOO%+#O#-#$=&-#$%@%*=O*%$##;-@OOOO#",
"-@$&%#$%$O&=%O*%@@&O$#%$Oo+%O*OOO+#@*%@@=&%$=@%O**O*O$:#;OO##%@#",
"O@@&O@$@$%&=-@*O@%&@@$@$Oo+-O*@@%+#O$@@O*;-@*$%@*=O$$$##;%%$#OO#",
"$O@o@$$$#%+=%@@$@Oo#$$$#%=o%@@$@%.*@$@#O*&-$#$$O*=@$$#$#;OO@$@O#",
"XXX XoX  ..XXo XXX XoX  .oXXo.XXX Xo  ... X.o++..+oX o  XX.oXXXX",
"X.X. +X o++X ++X.X. +  oo&XX++X.X  +. oo&. o&&+.o&+ .+.oXXo&. .X",
"XoX.X+X..++X ++X.X.Xo  .o&X ++X.X  .. .o&. o&&&.o&+X.+.oXXo&. .X",
"X.X  oX .o+X +o .X  oX oo&XX++ .X  o Xo.&. o+++  +o. o.+ Xo+   X",
" oX. oX.o+&X ++ .X. o  .o&  ++ . . o  .o&.X++     .. .o&oXo+. .X",
"X X XoX .o+XX+oX X XoX ..&XXo+X XXX. X. & X.+X  X ..X. &.X.+ X X",
"X X X.X X.oX ..X X X.X.X.o  ..X X X   X.o  ..XXX X     o.X.. X X"
};
